# Blender 4.3.2
# www.blender.org
mtllib cat.mtl
o Cube
v -0.176461 -0.201926 -0.306016
v -0.127489 0.184873 -0.317313
v -0.127612 -0.142902 0.384815
v -0.127597 0.138737 0.296743
v -0.005352 -0.142902 0.384836
v -0.005336 0.138737 0.296765
v -0.019178 -0.229181 -0.305192
v -0.005229 0.208078 -0.317970
v -0.127520 -0.205977 -0.141231
v -0.127559 -0.232201 0.082908
v -0.127587 -0.236941 0.238339
v -0.127585 0.107932 0.228259
v -0.127557 0.131553 0.072276
v -0.127518 0.164983 -0.152074
v -0.005324 0.131136 0.227602
v -0.005297 0.154757 0.071619
v -0.005258 0.188188 -0.152731
v -0.005327 -0.268067 0.239270
v -0.005299 -0.263328 0.083839
v -0.005260 -0.237104 -0.140300
v -0.127472 0.195042 -0.413067
v -0.176441 -0.180866 -0.423522
v -0.019157 -0.176994 -0.423607
v -0.005212 0.218247 -0.413724
v -0.127449 0.140816 -0.542961
v -0.127449 -0.163522 -0.548114
v -0.005188 -0.163522 -0.548093
v -0.005189 0.140816 -0.542940
v -0.005346 0.228602 0.350110
v -0.082623 0.228602 0.350097
v -0.082647 0.024047 0.486213
v -0.005370 0.024047 0.486226
v 0.117029 -0.198054 -0.306078
v 0.117032 0.184873 -0.317270
v 0.116908 -0.142902 0.384858
v 0.116924 0.138737 0.296786
v 0.117000 -0.205977 -0.141189
v 0.116961 -0.232202 0.082951
v 0.116934 -0.236941 0.238382
v 0.116936 0.107932 0.228302
v 0.116963 0.131553 0.072319
v 0.117003 0.164983 -0.152031
v 0.117048 0.195042 -0.413025
v 0.117050 -0.176994 -0.423584
v 0.117071 0.140816 -0.542918
v 0.117072 -0.163522 -0.548072
v 0.071932 0.228602 0.350124
v 0.071908 0.024047 0.486240
v -0.130134 -0.295190 0.382438
v -0.130144 -0.258234 0.440000
v -0.035554 -0.258234 0.440017
v -0.035544 -0.295190 0.382454
v -0.130152 -0.193948 0.481931
v -0.035561 -0.193948 0.481948
v -0.141609 -0.406256 0.493343
v -0.141617 -0.379812 0.534532
v -0.055907 -0.379812 0.534547
v -0.055900 -0.406256 0.493358
v -0.141622 -0.333811 0.564536
v -0.055912 -0.333811 0.564551
v 0.015816 -0.321604 0.168675
v 0.015834 -0.318503 0.066970
v 0.095834 -0.318503 0.066984
v 0.095816 -0.321604 0.168689
v 0.025811 -0.436690 0.114115
v 0.025824 -0.434363 0.037798
v 0.085854 -0.434363 0.037809
v 0.085840 -0.436690 0.114125
v 0.007721 -0.281625 -0.521142
v 0.007738 -0.204920 -0.620112
v 0.129981 -0.281625 -0.521121
v 0.129998 -0.204920 -0.620091
v 0.025042 -0.388751 -0.569422
v 0.025057 -0.361612 -0.654972
v 0.112676 -0.388751 -0.569406
v 0.112692 -0.361612 -0.654957
v 0.042271 -0.483699 -0.610443
v 0.042280 -0.488223 -0.664732
v 0.095462 -0.483699 -0.610434
v 0.095472 -0.488223 -0.664723
v -0.187498 -0.002082 0.340768
v -0.187384 -0.006590 -0.311728
v -0.187479 -0.064504 0.233288
v -0.187452 -0.050324 0.077581
v -0.187413 -0.020497 -0.146663
v -0.187365 0.009024 -0.418357
v -0.187343 -0.011353 -0.545548
v -0.120493 0.126324 0.418148
v 0.176810 -0.002083 0.340832
v 0.176924 -0.006590 -0.311664
v 0.176828 -0.064505 0.233352
v 0.176856 -0.050324 0.077645
v 0.176895 -0.020497 -0.146599
v 0.176943 0.009024 -0.418294
v 0.176965 -0.011353 -0.545484
v 0.109777 0.126324 0.418188
v -0.057873 0.239030 -0.456111
v -0.005204 0.239030 -0.456102
v -0.057856 0.199176 -0.551577
v -0.005188 0.199176 -0.551568
v 0.047465 0.239030 -0.456093
v 0.047481 0.199176 -0.551558
v -0.045850 0.389072 -0.493652
v -0.005198 0.389072 -0.493645
v -0.045837 0.397889 -0.573013
v -0.005184 0.397889 -0.573006
v 0.035455 0.389072 -0.493638
v 0.035469 0.397889 -0.572999
v -0.035369 0.540059 -0.469124
v -0.005202 0.540059 -0.469119
v -0.035359 0.553582 -0.526814
v -0.005192 0.553582 -0.526809
v 0.024966 0.540059 -0.469114
v 0.024976 0.553582 -0.526804
v -0.030843 0.666258 -0.469545
v -0.005202 0.666258 -0.469540
v -0.030835 0.657424 -0.519128
v -0.005193 0.657424 -0.519124
v 0.020440 0.666258 -0.469536
v 0.020449 0.657424 -0.519120
v -0.021971 0.737328 -0.527149
v -0.005192 0.737328 -0.527146
v -0.021966 0.721174 -0.555877
v -0.005187 0.721173 -0.555874
v 0.011588 0.737328 -0.527143
v 0.011593 0.721173 -0.555871
v 0.042268 -0.548232 -0.597271
v 0.042277 -0.537802 -0.645050
v 0.095460 -0.548232 -0.597262
v 0.095468 -0.537802 -0.645040
v 0.042263 -0.502134 -0.570033
v 0.095455 -0.502134 -0.570024
v 0.042261 -0.545647 -0.557476
v 0.095453 -0.545647 -0.557466
v 0.025811 -0.475912 0.112211
v 0.025824 -0.488250 0.036863
v 0.085854 -0.488250 0.036873
v 0.085841 -0.475912 0.112222
v 0.025809 -0.539054 0.121905
v 0.025823 -0.537480 0.045569
v 0.085852 -0.537480 0.045580
v 0.085839 -0.539054 0.121916
v 0.085834 -0.490007 0.146998
v 0.025805 -0.490007 0.146987
v 0.085833 -0.536840 0.156215
v 0.025803 -0.536840 0.156205
v -0.132126 -0.521281 0.628477
v -0.132130 -0.506457 0.651566
v -0.065434 -0.506458 0.651578
v -0.065430 -0.521281 0.628489
v -0.132133 -0.480672 0.668385
v -0.065437 -0.480672 0.668397
v -0.132130 -0.543874 0.650015
v -0.132135 -0.543956 0.677452
v -0.065439 -0.543956 0.677464
v -0.065434 -0.543874 0.650026
v -0.132141 -0.543083 0.712246
v -0.065445 -0.543083 0.712258
v -0.132142 -0.479884 0.721758
v -0.065447 -0.479884 0.721770
v -0.132150 -0.542295 0.765619
v -0.065455 -0.542295 0.765631
v -0.005367 0.310282 0.470206
v -0.082644 0.310282 0.470192
v -0.120507 0.209106 0.502077
v -0.082656 0.107929 0.533976
v -0.005378 0.066158 0.535210
v 0.071911 0.310282 0.470219
v 0.109762 0.209105 0.502118
v 0.071900 0.107929 0.534003
v -0.097157 0.321434 0.526725
v -0.124506 0.210942 0.545843
v -0.097163 0.119129 0.556872
v -0.005382 0.090469 0.557726
v 0.086404 0.321434 0.526757
v 0.113746 0.210942 0.545884
v 0.086399 0.119129 0.556905
v -0.082774 0.212773 0.637828
v -0.088670 0.176401 0.630703
v -0.082771 0.140028 0.623580
v -0.005394 0.105320 0.624608
v 0.071981 0.212773 0.637856
v 0.077880 0.176400 0.630732
v 0.071984 0.140028 0.623607
v -0.128860 -0.243736 0.307782
v -0.128878 -0.200568 0.412408
v -0.020461 -0.067333 0.459147
v -0.020453 -0.200568 0.412427
v -0.106395 -0.067333 0.459132
v -0.020435 -0.243736 0.307801
v -0.024266 -0.380215 -0.516124
v -0.133436 -0.374922 -0.516298
v -0.024247 -0.323003 -0.628968
v -0.133416 -0.317710 -0.629142
v -0.048804 -0.473514 -0.471799
v -0.129318 -0.473514 -0.471813
v -0.048790 -0.482387 -0.549912
v -0.129304 -0.482387 -0.549926
v -0.048811 -0.544052 -0.430201
v -0.129325 -0.544052 -0.430215
v -0.048798 -0.545056 -0.506482
v -0.129312 -0.545056 -0.506496
v -0.048815 -0.493985 -0.406587
v -0.129329 -0.493985 -0.406601
v -0.048817 -0.541970 -0.397548
v -0.129331 -0.541970 -0.397562
v -0.005185 -0.100480 -0.567945
v -0.099932 -0.020494 -0.570299
v -0.005184 0.056264 -0.572526
v 0.089563 -0.020494 -0.570266
v -0.005185 -0.028507 -0.570048
v -0.025850 0.253111 0.382230
v -0.083258 0.253111 0.382220
v -0.080190 0.297462 0.451343
v -0.007815 0.297462 0.451356
v 0.069475 0.250937 0.384413
v -0.002900 0.250937 0.384400
v -0.002912 0.297462 0.451357
v 0.069463 0.297462 0.451369
v -0.080154 0.363008 0.396327
v -0.092530 0.363008 0.396324
v -0.080158 0.376151 0.419248
v -0.092534 0.376151 0.419246
v 0.063850 0.361680 0.350908
v 0.076225 0.361680 0.350910
v 0.076221 0.374822 0.373831
v 0.063846 0.374822 0.373829
v -0.050629 0.169434 0.653750
v -0.054076 0.157720 0.650726
v -0.050628 0.146005 0.647703
v -0.005397 0.134826 0.644826
v 0.039831 0.169434 0.653766
v 0.043279 0.157720 0.650743
v 0.039832 0.146005 0.647719
v -0.015145 0.332689 0.536100
v 0.004388 0.332689 0.536104
v -0.005373 0.305797 0.508720
v -0.015164 0.224028 0.647201
v 0.004369 0.224028 0.647205
v 0.029759 0.183675 0.657439
v -0.040558 0.183675 0.657427
v -0.005398 0.144164 0.647236
v -0.015152 0.291737 0.577972
v 0.004381 0.291236 0.578488
v -0.029875 0.267879 0.597666
v -0.071287 0.242679 0.611176
v -0.029900 0.249871 0.617216
v 0.019097 0.267444 0.598118
v 0.019116 0.249871 0.617225
v 0.060504 0.242680 0.611201
v -0.029875 0.264907 0.594692
v -0.029900 0.246899 0.614242
v -0.071286 0.239707 0.608202
v 0.019116 0.246899 0.614251
v 0.019097 0.264472 0.595144
v 0.060504 0.239708 0.608227
v -0.046940 0.259251 0.597577
v -0.057473 0.267856 0.583362
v -0.056475 0.251037 0.599885
v -0.046948 0.254732 0.602995
v 0.036157 0.258942 0.597907
v 0.036163 0.254668 0.603075
v 0.045691 0.250975 0.599970
v 0.046688 0.267683 0.583559
v -0.057604 0.270599 0.586107
v -0.047071 0.261994 0.600322
v -0.047079 0.257475 0.605740
v -0.056606 0.253781 0.602630
v 0.036293 0.257412 0.605820
v 0.036287 0.261685 0.600652
v 0.046819 0.270426 0.586304
v 0.045821 0.253718 0.602715
v -0.074200 0.264863 0.588995
v -0.066203 0.281287 0.575227
v -0.084614 0.299041 0.552643
v 0.055420 0.281068 0.575471
v 0.063404 0.264706 0.589180
v 0.073819 0.298909 0.552812
v -0.066203 0.278314 0.572252
v -0.074200 0.261891 0.586021
v -0.067661 0.271970 0.578303
v 0.063405 0.261734 0.586206
v 0.055421 0.278096 0.572497
v 0.056872 0.271803 0.578497
v -0.077465 0.302707 0.449354
v -0.017546 0.302707 0.449364
v -0.079462 0.370054 0.421885
v -0.088030 0.370054 0.421883
v 0.004332 0.300246 0.447945
v 0.066675 0.300246 0.447956
v 0.072678 0.368955 0.379089
v 0.063624 0.368955 0.379088
v -0.017545 0.301383 0.446118
v -0.077465 0.301383 0.446107
v -0.088029 0.368730 0.418637
v -0.079461 0.368730 0.418638
v 0.004332 0.297764 0.445468
v 0.066676 0.297764 0.445479
v 0.063624 0.366473 0.376611
v 0.072678 0.366473 0.376613
v 0.016377 0.686733 -0.536016
v 0.016370 0.698932 -0.496020
v -0.005197 0.698932 -0.496024
v -0.026765 0.698932 -0.496028
v -0.005190 0.686733 -0.536020
v -0.026758 0.686733 -0.536023
v -0.005202 0.580640 -0.469254
v -0.033914 0.580640 -0.469259
v -0.005192 0.586974 -0.524338
v 0.023520 0.586974 -0.524333
v -0.033904 0.586974 -0.524343
v 0.023510 0.580640 -0.469249
v -0.043700 0.429632 -0.563594
v -0.005185 0.429632 -0.563587
v 0.033330 0.429632 -0.563581
v 0.033317 0.419855 -0.488638
v -0.005199 0.419855 -0.488645
v -0.043714 0.419855 -0.488652
v -0.022755 0.149136 0.646374
v -0.023897 0.151074 0.646771
v -0.022795 0.148780 0.649780
v -0.023628 0.150193 0.650069
v -0.019508 0.151006 0.646590
v -0.020650 0.152944 0.646987
v -0.019754 0.150415 0.649300
v -0.020803 0.152196 0.649665
v -0.036084 0.140910 0.659706
v -0.035224 0.139451 0.659407
v -0.032139 0.140900 0.660173
v -0.033179 0.142665 0.660534
v -0.057920 0.127361 0.663053
v -0.057056 0.125895 0.662752
v -0.054580 0.126819 0.664380
v -0.055615 0.128576 0.664740
v -0.078804 0.116397 0.658220
v -0.077640 0.114422 0.657816
v -0.076942 0.114424 0.660079
v -0.078060 0.116322 0.660468
v 0.024903 0.150668 0.646361
v 0.025806 0.152730 0.646745
v 0.025040 0.150316 0.649764
v 0.025698 0.151820 0.650044
v 0.021456 0.152127 0.646632
v 0.022359 0.154189 0.647017
v 0.021814 0.151568 0.649336
v 0.022644 0.153464 0.649689
v 0.039343 0.144119 0.659462
v 0.038663 0.142566 0.659173
v 0.035437 0.143627 0.659991
v 0.036259 0.145505 0.660340
v 0.062718 0.133331 0.662435
v 0.062035 0.131771 0.662144
v 0.059490 0.132385 0.663813
v 0.060309 0.134254 0.664161
v 0.084704 0.124999 0.657250
v 0.083784 0.122898 0.656859
v 0.083126 0.122812 0.659133
v 0.084011 0.124832 0.659509
v 0.025177 0.157956 0.646477
v 0.025803 0.160112 0.646895
v 0.025108 0.157643 0.649886
v 0.025564 0.159214 0.650191
v 0.021572 0.159001 0.646482
v 0.022198 0.161157 0.646901
v 0.021798 0.158504 0.649213
v 0.022373 0.160486 0.649597
v 0.039300 0.153226 0.660662
v 0.038829 0.151602 0.660347
v 0.035450 0.152281 0.660918
v 0.036020 0.154245 0.661299
v 0.063501 0.145280 0.665438
v 0.063027 0.143648 0.665122
v 0.060314 0.143968 0.666597
v 0.060881 0.145923 0.666976
v 0.086626 0.139563 0.661946
v 0.085989 0.137366 0.661520
v 0.085183 0.137216 0.663743
v 0.085796 0.139328 0.664152
v 0.028804 0.166946 0.646732
v 0.028957 0.169200 0.647064
v 0.028425 0.166784 0.650131
v 0.028537 0.168427 0.650373
v 0.025087 0.167260 0.646315
v 0.025241 0.169515 0.646647
v 0.025105 0.166945 0.649081
v 0.025246 0.169016 0.649386
v 0.041940 0.165753 0.662513
v 0.041824 0.164056 0.662263
v 0.038337 0.164082 0.662455
v 0.038476 0.166135 0.662758
v 0.066545 0.162958 0.670154
v 0.066429 0.161252 0.669902
v 0.063561 0.161100 0.671080
v 0.063700 0.163143 0.671382
v 0.090577 0.161749 0.669330
v 0.090421 0.159452 0.668991
v 0.089422 0.159250 0.671129
v 0.089572 0.161458 0.671455
v -0.032477 0.163068 0.646467
v -0.032859 0.165280 0.646885
v -0.032445 0.162749 0.649876
v -0.032723 0.164362 0.650181
v -0.028778 0.163704 0.646474
v -0.029160 0.165917 0.646892
v -0.029059 0.163235 0.649204
v -0.029409 0.165269 0.649588
v -0.047045 0.159944 0.660647
v -0.046758 0.158278 0.660332
v -0.043325 0.158576 0.660904
v -0.043672 0.160591 0.661285
v -0.071983 0.154750 0.665415
v -0.071695 0.153076 0.665098
v -0.068964 0.153091 0.666574
v -0.069309 0.155097 0.666953
v -0.095602 0.151651 0.661914
v -0.095213 0.149396 0.661488
v -0.094430 0.149158 0.663711
v -0.094803 0.151325 0.664121
v -0.032186 0.170926 0.646618
v -0.032336 0.173172 0.647004
v -0.031941 0.170672 0.650024
v -0.032051 0.172309 0.650305
v -0.028453 0.171221 0.646354
v -0.028604 0.173467 0.646740
v -0.028581 0.170833 0.649109
v -0.028719 0.172897 0.649463
v -0.045936 0.169425 0.661840
v -0.045823 0.167734 0.661549
v -0.042346 0.167727 0.661877
v -0.042483 0.169772 0.662229
v -0.070841 0.166627 0.668440
v -0.070727 0.164927 0.668148
v -0.067908 0.164721 0.669432
v -0.068044 0.166757 0.669782
v -0.094830 0.165632 0.666650
v -0.094677 0.163343 0.666257
v -0.093763 0.163078 0.668426
v -0.093910 0.165278 0.668804
v -0.029704 0.155232 0.646456
v -0.030408 0.157365 0.646874
v -0.029645 0.154916 0.649865
v -0.030158 0.156470 0.650170
v -0.026138 0.156403 0.646485
v -0.026841 0.158535 0.646903
v -0.026363 0.155893 0.649213
v -0.027009 0.157853 0.649597
v -0.043740 0.149987 0.660546
v -0.043210 0.148382 0.660232
v -0.039861 0.149177 0.660825
v -0.040502 0.151119 0.661206
v -0.067677 0.141194 0.665162
v -0.067145 0.139581 0.664846
v -0.064454 0.139992 0.666338
v -0.065092 0.141926 0.666716
v -0.090568 0.134680 0.661518
v -0.089851 0.132507 0.661093
v -0.089054 0.132382 0.663320
v -0.089743 0.134470 0.663729
vn -0.8057 -0.0518 0.5901
vn -0.9523 0.3035 0.0309
vn -0.2045 -0.9789 0.0034
vn -0.1846 0.9758 0.1174
vn -0.1848 0.9765 0.1105
vn -0.1847 0.9765 0.1106
vn -0.1849 0.9773 0.1038
vn -0.0917 0.9591 -0.2676
vn -0.1837 0.9719 0.1471
vn -0.1837 0.9721 0.1460
vn -0.1837 0.9722 0.1448
vn 0.9704 -0.0988 0.2203
vn -0.2464 -0.9687 -0.0296
vn -0.2443 -0.9631 -0.1127
vn -0.9286 0.3279 -0.1739
vn -0.9463 0.3211 0.0388
vn -0.9494 0.3109 0.0437
vn 0.1453 0.1837 -0.9722
vn 0.9994 -0.0335 -0.0096
vn -0.9524 0.3023 0.0383
vn 0.9984 -0.0188 0.0535
vn -0.0701 -0.9527 -0.2958
vn 0.0002 -0.1462 -0.9892
vn -0.9374 0.3343 -0.0972
vn 0.7632 0.4702 -0.4432
vn -0.9998 0.0158 -0.0080
vn 0.0002 0.5105 -0.8599
vn 1.0000 -0.0000 0.0002
vn 0.8055 -0.0518 0.5904
vn 0.9523 0.3035 0.0312
vn 0.2334 -0.9707 -0.0565
vn 0.1845 0.9758 0.1175
vn 0.1847 0.9765 0.1107
vn 0.1847 0.9765 0.1106
vn 0.1849 0.9773 0.1038
vn 0.0918 0.9591 -0.2676
vn 0.1836 0.9719 0.1472
vn 0.1837 0.9721 0.1461
vn 0.1837 0.9722 0.1449
vn 0.1034 -0.7955 0.5971
vn -0.9349 -0.3547 -0.0110
vn 0.2444 -0.9631 -0.1126
vn 0.9286 0.3279 -0.1736
vn 0.9463 0.3211 0.0391
vn 0.9494 0.3109 0.0440
vn 0.1076 -0.9495 -0.2948
vn 0.9524 0.3023 0.0387
vn -0.1449 0.1837 -0.9722
vn -0.0001 -0.6819 0.7315
vn 0.9375 0.3343 -0.0968
vn -0.1686 -0.6003 0.7818
vn -0.0002 -0.5191 0.8547
vn -0.0002 0.5086 0.8610
vn 0.9904 -0.0756 0.1160
vn -0.9915 0.1264 -0.0302
vn -0.0002 0.1773 0.9842
vn 0.0001 -0.8234 -0.5675
vn 0.9784 -0.1851 0.0916
vn -0.9984 -0.0470 0.0300
vn 0.9984 -0.0470 0.0304
vn 0.9913 -0.1106 0.0712
vn -0.9972 0.0627 -0.0404
vn -0.9969 0.0429 -0.0659
vn 0.0001 -0.7066 -0.7076
vn -0.0002 -0.4284 0.9036
vn -0.0390 0.2259 -0.9734
vn 0.9716 -0.2365 -0.0070
vn 0.1120 -0.7079 0.6974
vn -0.0002 -0.0485 0.9988
vn -0.9964 -0.0852 -0.0028
vn 0.0002 0.2442 -0.9697
vn 0.9964 -0.0852 -0.0024
vn 0.9919 -0.1106 -0.0621
vn 0.9917 0.1194 0.0484
vn 0.0001 0.8670 -0.4983
vn -0.9842 -0.1340 -0.1157
vn 0.0002 0.0769 -0.9970
vn -0.0002 -0.4109 0.9117
vn 0.0002 0.2172 -0.9761
vn -0.9919 -0.1106 -0.0624
vn 0.0002 -0.3690 -0.9294
vn -0.9887 -0.1482 -0.0241
vn 0.9887 -0.1482 -0.0238
vn -0.0002 -0.3966 0.9180
vn -0.9631 -0.1952 -0.1851
vn -0.9984 -0.0566 -0.0094
vn -0.9497 -0.3108 -0.0390
vn -0.9470 -0.3207 -0.0197
vn -0.9254 -0.3227 0.1987
vn -0.9749 -0.1773 0.1349
vn -0.9077 0.4088 0.0949
vn 0.9425 -0.3341 0.0093
vn 0.9520 -0.3021 -0.0493
vn 0.9497 -0.3108 -0.0387
vn 0.9470 -0.3207 -0.0193
vn 0.9253 -0.3227 0.1990
vn 0.9527 -0.3033 -0.0199
vn 0.9076 0.4088 0.0952
vn 0.0002 -0.1073 -0.9942
vn -0.9977 0.0667 -0.0120
vn -0.6348 0.7130 -0.2978
vn -0.1084 0.8327 0.5430
vn 0.1083 0.8327 0.5431
vn 0.6349 0.7130 -0.2975
vn 0.9978 0.0660 0.0100
vn 0.9978 0.0656 0.0115
vn 0.9978 0.0656 0.0117
vn 0.0002 0.2845 -0.9587
vn 0.9977 0.0667 -0.0117
vn -0.0002 0.2427 0.9701
vn 0.0002 0.0738 -0.9973
vn -0.0002 0.0033 1.0000
vn -0.0002 -0.1603 0.9871
vn -0.9978 0.0656 0.0112
vn -0.9978 0.0660 0.0096
vn -0.9978 0.0656 0.0113
vn -0.0001 0.6297 0.7769
vn 0.9940 0.1014 -0.0417
vn -0.9992 0.0393 -0.0011
vn 0.9992 0.0393 -0.0008
vn 0.0001 0.8716 -0.4901
vn 0.0002 -0.4994 -0.8664
vn -0.9940 0.1014 -0.0420
vn -0.0000 -0.9770 -0.2133
vn -1.0000 -0.0000 -0.0002
vn -0.0002 0.2773 0.9608
vn -0.0001 0.9098 0.4150
vn -0.0000 -0.9979 0.0648
vn 0.0002 -0.1742 -0.9847
vn 0.0002 0.0174 -0.9998
vn -0.0000 -0.9998 -0.0206
vn -0.0002 0.1931 0.9812
vn -0.0000 -0.9979 0.0644
vn -0.0001 0.9268 0.3756
vn 0.0001 -0.6900 -0.7238
vn -0.9984 -0.0310 0.0474
vn 0.0001 -0.7615 -0.6482
vn 0.9984 -0.0310 0.0477
vn -0.0001 0.5774 0.8165
vn -0.0000 -1.0000 -0.0030
vn -0.0000 -0.9997 0.0251
vn -0.0000 -0.9998 0.0199
vn -0.0000 -0.9999 0.0148
vn -0.0001 0.5750 0.8182
vn -0.0000 0.9999 -0.0148
vn 0.9481 0.2423 -0.2060
vn -0.9176 -0.3514 -0.1860
vn 0.9378 -0.2152 0.2725
vn 0.9461 0.2522 -0.2031
vn -0.9460 0.2522 -0.2035
vn -0.9379 -0.2152 0.2722
vn 0.1683 -0.6003 0.7818
vn -0.0001 -0.7063 0.7079
vn 0.3397 -0.8988 0.2772
vn 0.8871 0.2333 0.3982
vn 0.3357 -0.7911 0.5114
vn 0.0590 0.9637 -0.2603
vn -0.3359 -0.7911 0.5113
vn 0.1750 0.7039 0.6884
vn -0.9480 0.2423 -0.2064
vn 0.9176 -0.3514 -0.1857
vn -0.5663 -0.2741 0.7773
vn 0.5661 -0.2741 0.7775
vn -0.2453 0.2710 0.9308
vn -0.3398 -0.8988 0.2771
vn -0.0589 0.9637 -0.2603
vn -0.8873 0.2333 0.3979
vn 0.9292 -0.2323 0.2874
vn -0.9293 -0.2323 0.2871
vn 0.9374 -0.2888 0.1945
vn -0.1334 -0.9850 0.1094
vn -0.0002 -0.2841 0.9588
vn -0.9799 0.1648 0.1121
vn -0.9997 0.0215 -0.0119
vn 0.9103 -0.1831 0.3713
vn 0.9960 -0.0827 0.0341
vn -0.0113 -0.4382 -0.8988
vn -0.0026 -0.4229 0.9062
vn 0.0112 0.4579 -0.8889
vn -0.9792 -0.0028 -0.2030
vn -0.9993 -0.0355 -0.0092
vn 0.0108 0.4190 0.9079
vn 0.9749 -0.2160 -0.0545
vn -0.0000 -0.9999 0.0132
vn 0.0001 -0.5696 -0.8219
vn -0.0002 0.1851 0.9827
vn -0.0001 0.9541 0.2995
vn -0.0000 -0.9980 0.0636
vn -0.1398 -0.1580 -0.9775
vn 0.0002 -0.0292 -0.9996
vn 0.1401 -0.1580 -0.9775
vn -0.0002 0.0292 0.9996
vn 0.0001 0.7950 -0.6066
vn -0.8313 0.4687 -0.2988
vn 0.0001 0.8269 -0.5624
vn 0.0970 0.8241 -0.5581
vn 0.0001 0.8379 -0.5458
vn 0.1769 0.8119 -0.5564
vn -0.1767 0.8119 -0.5565
vn 0.0001 0.8675 -0.4974
vn -0.8529 0.4349 -0.2889
vn 0.0002 -0.2896 -0.9572
vn -0.9897 -0.1041 0.0980
vn -0.7615 -0.6002 0.2447
vn 0.0002 0.1273 -0.9919
vn 0.9981 -0.0514 0.0343
vn -0.0002 -0.2499 0.9683
vn 0.5265 -0.0763 0.8467
vn 0.2385 -0.6664 0.7064
vn -0.2388 -0.6664 0.7063
vn 0.2450 0.2710 0.9309
vn -0.5268 -0.0763 0.8465
vn 0.0001 0.7135 -0.7007
vn -0.0001 0.7149 0.6992
vn -0.0002 0.2458 0.9693
vn -0.1753 0.7039 0.6884
vn -0.1758 0.7028 0.6894
vn -0.1787 0.6967 0.6947
vn -1.0000 0.0006 -0.0007
vn -0.0198 0.7072 -0.7068
vn 0.9957 0.0655 -0.0653
vn 0.5768 -0.5778 0.5775
vn -0.2059 0.6880 0.6958
vn -0.2145 0.6899 0.6914
vn -0.1906 0.7063 0.6818
vn 0.1903 0.7063 0.6818
vn 0.2143 0.6899 0.6915
vn 0.2057 0.6880 0.6959
vn 0.1881 0.6911 0.6979
vn 0.1789 0.6960 0.6954
vn 0.1985 0.6852 0.7008
vn -0.9957 0.0655 -0.0656
vn -0.0430 -0.7057 0.7072
vn 0.9994 0.0253 0.0225
vn 0.0200 0.7072 -0.7068
vn 1.0000 0.0006 -0.0004
vn -0.1973 0.6861 0.7003
vn -0.1991 0.6850 0.7008
vn -0.1989 0.6851 0.7008
vn -0.1892 0.7005 0.6881
vn -0.1790 0.6961 0.6953
vn 0.1991 0.6849 0.7009
vn -0.1289 0.6849 0.7171
vn 0.1890 0.7005 0.6881
vn -0.2678 0.6728 0.6897
vn -0.1160 0.7375 0.6653
vn 0.1154 0.7384 0.6644
vn 0.2675 0.6728 0.6898
vn 0.1287 0.6848 0.7172
vn -0.4010 0.6476 0.6479
vn 0.4009 0.6475 0.6480
vn -0.9994 0.0254 0.0221
vn -0.9985 -0.0536 0.0058
vn 0.9985 -0.0536 0.0061
vn 0.8339 0.4099 -0.3697
vn -0.8369 0.4066 -0.3666
vn 0.0428 -0.7056 0.7073
vn -0.1995 0.6847 0.7010
vn 0.1994 0.6847 0.7010
vn -0.2948 0.6941 0.6567
vn 0.2950 0.6941 0.6566
vn 0.9365 -0.2481 0.2480
vn -0.9362 -0.2487 0.2484
vn -0.5722 -0.5801 0.5797
vn -0.0002 0.3546 0.9350
vn 0.0278 0.3995 0.9163
vn 0.0237 0.3991 0.9166
vn 0.0032 0.3973 0.9177
vn -0.0002 0.3969 0.9178
vn -0.0394 0.3721 0.9274
vn -0.0001 0.7749 0.6321
vn -0.1425 0.7069 0.6928
vn -0.0001 0.6674 0.7447
vn 0.0955 0.6623 0.7431
vn -0.0002 0.3777 0.9259
vn -0.0001 0.7079 0.7063
vn 0.0001 0.9259 -0.3777
vn 0.8539 -0.3675 0.3685
vn -0.0001 -0.9259 0.3777
vn 0.9896 0.1332 -0.0541
vn -0.9981 0.0434 -0.0437
vn 0.0001 0.7063 -0.7079
vn -0.9933 0.1122 -0.0265
vn 0.9933 0.1122 -0.0262
vn 0.9992 0.0391 0.0071
vn -0.9992 0.0391 0.0067
vn -0.9978 0.0664 0.0078
vn 0.9978 0.0664 0.0082
vn 0.8654 0.4973 0.0622
vn 0.5355 0.1452 0.8320
vn -0.8631 -0.4715 -0.1812
vn 0.0377 -0.1791 0.9831
vn -0.4801 0.8700 0.1123
vn 0.5176 -0.8229 -0.2345
vn 0.5195 -0.8515 -0.0708
vn -0.5716 -0.1725 -0.8022
vn -0.4444 0.8596 0.2522
vn 0.5509 -0.8293 -0.0938
vn 0.0577 0.2328 -0.9708
vn 0.2004 -0.0819 0.9763
vn -0.2243 0.0670 -0.9722
vn -0.4750 0.8360 0.2749
vn 0.8108 0.5291 -0.2505
vn -0.5095 0.8325 0.2177
vn 0.4893 -0.8624 -0.1295
vn -0.0912 -0.2511 0.9637
vn 0.9185 -0.3880 -0.0769
vn 0.5361 -0.0782 -0.8406
vn -0.9112 0.3626 0.1958
vn 0.0002 0.1831 -0.9831
vn -0.3721 -0.9220 -0.1072
vn 0.4170 0.8797 0.2286
vn 0.4129 0.9085 0.0650
vn -0.5757 0.1010 0.8114
vn -0.3402 -0.9072 -0.2475
vn 0.4471 0.8902 0.0874
vn 0.1009 -0.2248 0.9692
vn 0.1736 0.1064 -0.9791
vn -0.1992 -0.0945 0.9754
vn -0.3738 -0.8875 -0.2697
vn 0.8730 -0.4265 0.2365
vn -0.4076 -0.8882 -0.2120
vn 0.3825 0.9156 0.1241
vn -0.1362 0.2388 -0.9615
vn 0.9607 -0.2776 -0.0060
vn 0.6008 -0.0193 -0.7992
vn -0.9590 0.2540 0.1254
vn 0.0497 0.1762 -0.9831
vn -0.2531 -0.9599 -0.1203
vn 0.2937 0.9239 0.2452
vn 0.2980 0.9511 0.0813
vn -0.6406 0.0372 0.7669
vn -0.2130 -0.9423 -0.2582
vn 0.3324 0.9371 0.1063
vn 0.0562 -0.2059 0.9770
vn 0.2302 0.1205 -0.9657
vn -0.2566 -0.1118 0.9600
vn -0.2470 -0.9268 -0.2830
vn 0.8976 -0.3194 0.3039
vn -0.2845 -0.9312 -0.2278
vn 0.2629 0.9549 0.1380
vn -0.0935 0.2157 -0.9720
vn 0.9908 -0.0831 0.1066
vn 0.6768 0.0622 -0.7335
vn -0.9977 0.0658 0.0138
vn 0.1219 0.1368 -0.9831
vn -0.0505 -0.9955 -0.0801
vn 0.0834 0.9740 0.2105
vn 0.1003 0.9939 0.0464
vn -0.7156 -0.0541 0.6964
vn 0.0002 -0.9768 -0.2144
vn 0.1338 0.9881 0.0756
vn -0.0123 -0.1451 0.9893
vn 0.3067 0.1185 -0.9444
vn -0.3336 -0.1154 0.9356
vn -0.0332 -0.9694 -0.2433
vn 0.9035 -0.1220 0.4108
vn -0.0749 -0.9785 -0.1919
vn 0.0591 0.9933 0.0990
vn -0.0265 0.1477 -0.9887
vn 0.9857 0.1687 0.0063
vn 0.5989 -0.0479 0.7994
vn -0.9814 -0.1453 -0.1258
vn 0.0294 -0.1807 0.9831
vn -0.1443 0.9822 0.1202
vn 0.1888 -0.9509 -0.2451
vn 0.1900 -0.9784 -0.0812
vn -0.6405 0.0346 -0.7672
vn -0.1066 0.9602 0.2582
vn 0.2257 -0.9684 -0.1062
vn 0.0792 0.1983 -0.9769
vn 0.2149 -0.1454 0.9657
vn -0.2422 0.1397 -0.9601
vn -0.1421 0.9486 0.2829
vn 0.9277 0.2172 -0.3035
vn -0.1789 0.9571 0.2278
vn 0.1547 -0.9783 -0.1380
vn -0.1173 -0.2039 0.9719
vn 0.9948 0.0779 -0.0657
vn 0.6472 -0.0868 0.7574
vn -0.9969 -0.0574 -0.0544
vn 0.0824 -0.1634 0.9831
vn -0.0467 0.9934 0.1044
vn 0.0848 -0.9688 -0.2328
vn 0.0951 -0.9931 -0.0688
vn -0.6874 0.0780 -0.7221
vn -0.0014 0.9708 0.2400
vn 0.1297 -0.9868 -0.0964
vn 0.0275 0.1711 -0.9849
vn 0.2687 -0.1456 0.9522
vn -0.2959 0.1425 -0.9445
vn -0.0359 0.9629 0.2674
vn 0.9197 0.1255 -0.3720
vn -0.0756 0.9738 0.2147
vn 0.0560 -0.9908 -0.1229
vn -0.0661 -0.1733 0.9826
vn 0.9503 0.3110 0.0123
vn 0.5948 0.0389 0.8029
vn -0.9488 -0.2871 -0.1317
vn 0.0498 -0.1762 0.9831
vn -0.2871 0.9503 0.1202
vn 0.3273 -0.9127 -0.2448
vn 0.3315 -0.9400 -0.0809
vn -0.6343 -0.0581 -0.7709
vn -0.2474 0.9338 0.2584
vn 0.3656 -0.9248 -0.1057
vn 0.0550 0.2094 -0.9763
vn 0.2283 -0.1141 0.9669
vn -0.2545 0.1044 -0.9614
vn -0.2809 0.9171 0.2828
vn 0.8877 0.3511 -0.2978
vn -0.3182 0.9203 0.2275
vn 0.2969 -0.9449 -0.1379
vn -0.0918 -0.2205 0.9711
vt 0.500000 0.500000
vt 0.375000 0.500000
vt 0.500000 0.687500
vt 0.625000 0.687500
vt 0.625000 0.750000
vt 0.500000 0.750000
vt 0.250000 0.687500
vt 0.375000 0.687500
vt 0.375000 0.750000
vt 0.250000 0.750000
vt 0.750000 0.687500
vt 0.750000 0.750000
vt 0.625000 0.500000
vt 0.750000 0.500000
vt 0.750000 0.562500
vt 0.625000 0.562500
vt 0.750000 0.625000
vt 0.625000 0.625000
vt 0.000000 0.000000
vt 0.250000 0.562500
vt 0.375000 0.562500
vt 0.375000 0.625000
vt 0.250000 0.625000
vt 0.500000 0.562500
vt 0.500000 0.625000
vt 0.499963 0.851970
vt 0.563102 0.875000
vt 0.625000 0.875000
vt 0.736305 0.500000
vt 0.736305 0.500000
vt 0.736305 0.500000
vt 0.250000 0.500000
vt 0.375000 0.375000
vt 0.375000 0.875000
vt 0.625000 0.750000
vt 0.625000 0.875000
vt 0.625000 0.750000
vt 0.750000 0.750000
vt 0.653736 0.500000
vt 0.718778 0.500000
vt 0.736699 0.500000
vt 0.736699 0.500000
vt 0.735754 0.500000
vt 0.734223 0.500000
vt 0.702507 0.500000
vt 0.434169 0.875000
vt 0.493371 0.875000
vt 0.638695 0.500000
vt 0.638695 0.500000
vt 0.728490 0.500000
vt 0.716394 0.500000
vt 0.625000 0.422493
vt 0.442455 0.375000
vt 0.734223 0.500000
vt 0.702507 0.500000
vt 0.765022 0.500000
vt 0.625000 0.375000
vt 0.735765 0.500000
vt 0.712435 0.500000
vt 0.713557 0.500000
vt 0.648268 0.500000
vt 0.647847 0.500000
vt 0.662468 0.500000
vt 0.713538 0.500000
vt 0.712438 0.500000
vt 0.648273 0.500000
vt 0.638920 0.500000
vt 0.647857 0.500000
vt 0.708197 0.500000
vt 0.652931 0.500000
vt 0.708191 0.500000
vt 0.708790 0.500000
vt 0.638890 0.500000
vt 0.662468 0.500000
vt 0.650925 0.500000
vt 0.652311 0.500000
vt 0.652924 0.500000
vt 0.650939 0.500000
vt 0.708769 0.500000
vt 0.652326 0.500000
vt 0.647645 0.500000
vt 0.654687 0.500000
vt 0.654640 0.500000
vt 0.647658 0.500000
vt 0.644456 0.500000
vt 0.655293 0.500000
vt 0.643349 0.500000
vt 0.730228 0.500000
vt 0.375000 0.000000
vt 0.625000 0.000000
vt 0.625000 0.250000
vt 0.375000 0.250000
vt 0.625000 1.000000
vt 0.375000 1.000000
vt 0.125000 0.500000
vt 0.125000 0.750000
vt 0.875000 0.500000
vt 0.875000 0.750000
s 1
usemtl Material.001
f 81/1/1 3/2/1 31/2/1 88/1/1
f 85/3/2 14/4/2 2/5/2 82/6/2
f 20/7/3 9/8/3 1/9/3 7/10/3
f 14/4/4 17/11/4 8/12/5 2/5/6
f 2/5/6 8/12/5 24/12/7 21/5/7
f 4/13/8 6/14/8 15/15/8 12/16/8
f 12/16/9 15/15/9 16/17/10 13/18/10
f 13/18/10 16/17/10 17/11/11 14/4/11
f 188/19/12 187/19/12 54/19/12 51/19/12
f 18/20/13 11/21/13 10/22/13 19/23/13
f 19/23/14 10/22/14 9/8/14 20/7/14
f 81/1/15 4/13/15 12/16/15 83/24/15
f 83/24/16 12/16/16 13/18/16 84/25/16
f 84/25/17 13/18/17 14/4/17 85/3/17
f 95/6/18 210/26/18 209/27/18 28/28/18 45/5/18
f 8/19/19 7/19/19 23/19/19 24/19/19
f 82/6/20 2/5/20 21/5/20 86/6/20
f 24/19/21 23/19/21 27/19/21 207/19/21 211/19/21 209/19/21 28/19/21
f 7/10/22 1/9/22 22/9/22 23/10/22
f 28/28/23 25/5/23 99/5/23 100/28/23
f 86/6/24 21/5/24 25/5/24 87/6/24
f 215/29/25 212/30/25 220/31/25 222/29/25
f 186/2/26 185/21/26 49/21/26 50/2/26
f 6/14/27 4/13/27 30/13/27 29/14/27
f 5/19/28 6/19/28 29/19/28 32/19/28
f 89/1/29 96/1/29 48/2/29 35/2/29
f 93/3/30 90/6/30 34/5/30 42/4/30
f 20/7/31 7/10/31 33/9/31 37/8/31
f 42/4/32 34/5/33 8/12/34 17/11/32
f 34/5/33 43/5/35 24/12/35 8/12/34
f 36/13/36 40/16/36 15/15/36 6/14/36
f 40/16/37 41/18/38 16/17/38 15/15/37
f 41/18/38 42/4/39 17/11/39 16/17/38
f 5/32/40 18/20/40 39/21/40 35/2/40
f 18/20/41 19/23/41 62/23/41 61/20/41
f 19/23/42 20/7/42 37/8/42 38/22/42
f 89/1/43 91/24/43 40/16/43 36/13/43
f 91/24/44 92/25/44 41/18/44 40/16/44
f 92/25/45 93/3/45 42/4/45 41/18/45
f 7/10/46 23/10/46 44/9/46 33/9/46
f 90/6/47 94/6/47 43/5/47 34/5/47
f 209/27/48 208/26/48 87/6/48 25/5/48 28/28/48
f 44/9/49 23/10/49 69/10/49 71/9/49
f 45/5/23 28/28/23 100/28/23 102/5/23
f 94/6/50 95/6/50 45/5/50 43/5/50
f 31/2/51 32/33/51 167/33/51 166/2/51
f 35/2/52 48/2/52 32/32/52 5/32/52
f 6/14/27 29/14/27 47/13/27 36/13/27
f 54/33/53 53/2/53 59/2/53 60/33/53
f 51/19/54 54/19/54 60/19/54 57/19/54
f 189/2/55 186/2/55 50/2/55 53/2/55
f 187/33/56 189/2/56 53/2/56 54/33/56
f 185/21/57 190/20/57 52/20/57 49/21/57
f 190/20/58 188/32/58 51/32/58 52/20/58
f 56/2/59 55/21/59 147/21/59 148/2/59
f 58/20/60 57/32/60 149/32/60 150/20/60
f 52/20/61 51/32/61 57/32/61 58/20/61
f 50/2/62 49/21/62 55/21/62 56/2/62
f 53/2/63 50/2/63 56/2/63 59/2/63
f 49/21/64 52/20/64 58/20/64 55/21/64
f 64/21/65 61/20/65 65/20/65 68/21/65
f 19/23/66 38/22/66 63/22/66 62/23/66
f 38/22/67 39/21/67 64/21/67 63/22/67
f 39/21/68 18/20/68 61/20/68 64/21/68
f 68/21/69 65/20/69 135/20/69 138/21/69
f 61/20/70 62/23/70 66/23/70 65/20/70
f 62/23/71 63/22/71 67/22/71 66/23/71
f 63/22/72 64/21/72 68/21/72 67/22/72
f 72/9/73 71/9/73 75/9/73 76/9/73
f 46/9/74 44/9/74 71/9/74 72/9/74
f 27/34/75 46/9/75 72/9/75 70/34/75
f 23/10/76 27/10/76 70/10/76 69/10/76
f 74/34/77 76/9/77 80/9/77 78/34/77
f 71/9/78 69/10/78 73/10/78 75/9/78
f 70/34/79 72/9/79 76/9/79 74/34/79
f 69/10/80 70/10/80 74/10/80 73/10/80
f 78/34/81 80/9/81 130/9/81 128/34/81
f 73/10/82 74/10/82 78/10/82 77/10/82
f 76/9/83 75/9/83 79/9/83 80/9/83
f 75/9/84 73/10/84 77/10/84 79/9/84
f 22/9/85 86/6/85 87/6/85 26/9/85
f 1/9/86 82/6/86 86/6/86 22/9/86
f 10/22/87 84/25/87 85/3/87 9/8/87
f 11/21/88 83/24/88 84/25/88 10/22/88
f 3/2/89 81/1/89 83/24/89 11/21/89
f 9/8/90 85/3/90 82/6/90 1/9/90
f 4/13/91 81/1/91 88/1/91 30/13/91
f 44/9/92 46/9/92 95/6/92 94/6/92
f 33/9/93 44/9/93 94/6/93 90/6/93
f 38/22/94 37/8/94 93/3/94 92/25/94
f 39/21/95 38/22/95 92/25/95 91/24/95
f 35/2/96 39/21/96 91/24/96 89/1/96
f 37/8/97 33/9/97 90/6/97 93/3/97
f 36/13/98 47/13/98 96/1/98 89/1/98
f 100/28/99 99/5/99 105/5/99 106/28/99
f 99/5/100 97/5/100 103/5/100 105/5/100
f 25/5/101 21/5/101 97/5/101 99/5/101
f 21/5/102 24/12/102 98/12/102 97/5/102
f 24/12/103 43/5/103 101/5/103 98/12/103
f 43/5/104 45/5/104 102/5/104 101/5/104
f 316/35/105 315/5/106 114/5/107 113/5/107
f 314/36/108 313/5/108 111/5/108 112/28/108
f 101/5/109 102/5/109 108/5/109 107/5/109
f 98/12/110 101/5/110 107/5/110 104/12/110
f 97/5/110 98/12/110 104/12/110 103/5/110
f 102/5/99 100/28/99 106/28/99 108/5/99
f 310/37/111 309/36/111 118/28/111 120/5/111
f 308/5/112 307/12/112 116/12/112 115/5/112
f 317/12/113 316/35/113 113/5/113 110/12/113
f 318/35/113 317/12/113 110/12/113 109/5/113
f 315/5/108 314/36/108 112/28/108 114/5/108
f 313/5/114 318/35/115 109/5/116 111/5/116
f 311/5/119 308/5/119 115/5/119 117/5/119
f 309/36/111 311/5/111 117/5/111 118/28/111
f 312/5/120 310/37/120 120/5/120 119/5/120
f 307/12/112 312/5/112 119/5/112 116/12/112
f 127/10/124 128/10/124 130/9/124 129/9/124
f 77/10/125 78/10/125 128/10/125 127/10/125
f 80/9/28 79/9/28 129/9/28 130/9/28
f 77/10/125 127/10/125 133/10/125 131/10/125
f 132/9/126 131/10/126 133/10/126 134/9/126
f 129/9/28 79/9/28 132/9/28 134/9/28
f 79/9/127 77/10/127 131/10/127 132/9/127
f 127/10/128 129/9/128 134/9/128 133/10/128
f 136/23/129 137/22/129 141/22/129 140/23/129
f 65/20/125 66/23/125 136/23/125 135/20/125
f 66/23/130 67/22/130 137/22/130 136/23/130
f 67/22/28 68/21/28 138/21/28 137/22/28
f 139/20/131 140/23/131 141/22/131 142/21/131
f 137/22/28 138/21/28 142/21/28 141/22/28
f 142/21/28 138/21/28 143/21/28 145/21/28
f 135/20/125 136/23/125 140/23/125 139/20/125
f 143/21/132 144/20/132 146/20/132 145/21/132
f 139/20/133 142/21/133 145/21/133 146/20/133
f 135/20/125 139/20/125 146/20/125 144/20/125
f 138/21/134 135/20/134 144/20/134 143/21/134
f 147/21/135 150/20/135 156/20/135 153/21/135
f 151/2/125 148/2/125 154/2/125 157/2/125
f 59/2/136 56/2/136 148/2/136 151/2/136
f 55/21/137 58/20/137 150/20/137 147/21/137
f 57/19/138 60/19/138 152/19/138 149/19/138
f 60/33/139 59/2/139 151/2/139 152/33/139
f 155/32/140 154/2/140 153/21/140 156/20/140
f 154/2/141 155/32/141 158/32/142 157/2/142
f 149/19/28 152/19/28 158/19/28 155/19/28
f 157/2/142 158/32/142 162/32/143 161/2/143
f 150/20/28 149/32/28 155/32/28 156/20/28
f 148/2/125 147/21/125 153/21/125 154/2/125
f 160/33/144 159/2/144 161/2/144 162/33/144
f 151/2/125 157/2/125 161/2/125 159/2/125
f 152/33/145 151/2/145 159/2/145 160/33/145
f 158/19/28 152/19/28 160/19/28 162/19/28
f 169/1/146 168/13/146 175/13/146 176/1/146
f 165/1/147 166/2/147 173/2/147 172/1/147
f 48/2/148 96/1/148 169/1/148 170/2/148
f 96/1/149 47/13/149 168/13/149 169/1/149
f 30/13/150 88/1/150 165/1/150 164/13/150
f 88/1/151 31/2/151 166/2/151 165/1/151
f 32/32/152 48/2/152 170/2/152 167/32/152
f 291/39/153 292/40/153 299/40/153 300/39/153
f 174/32/154 177/2/154 184/2/154 181/32/154
f 176/1/155 175/13/155 182/13/155 183/1/155
f 167/32/156 170/2/156 177/2/156 174/32/156
f 163/14/157 164/13/157 171/13/157 235/41/157 237/14/157
f 166/2/158 167/33/158 174/33/158 173/2/158
f 175/13/159 236/42/159 244/43/159
f 164/13/160 165/1/160 172/1/160 171/13/160
f 170/2/161 169/1/161 176/1/161 177/2/161
f 179/1/162 180/2/162 230/2/162 229/1/162
f 184/2/163 183/1/163 233/1/163 234/2/163
f 238/44/164 178/13/164 228/13/164 241/45/164
f 173/2/165 174/33/165 181/33/165 180/2/165
f 168/13/166 163/14/166 237/14/166 236/42/166 175/13/166
f 171/13/167 172/1/167 179/1/167 178/13/167
f 177/2/168 176/1/168 183/1/168 184/2/168
f 172/1/169 173/2/169 180/2/169 179/1/169
f 18/20/170 5/32/170 188/32/170 190/20/170
f 11/21/171 18/20/171 190/20/171 185/21/171
f 32/33/172 31/2/172 189/2/172 187/33/172
f 31/2/173 3/2/173 186/2/173 189/2/173
f 3/2/174 11/21/174 185/21/174 186/2/174
f 5/19/175 32/19/175 187/19/175 188/19/175
f 27/19/176 23/19/176 191/19/176 193/19/176
f 194/9/177 193/10/177 197/10/177 198/9/177
f 23/10/178 22/9/178 192/9/178 191/10/178
f 26/9/179 27/10/179 193/10/179 194/9/179
f 22/9/180 26/9/180 194/9/180 192/9/180
f 196/9/125 198/9/125 202/9/125 200/9/125
f 192/9/181 194/9/181 198/9/181 196/9/181
f 191/10/182 192/9/182 196/9/182 195/10/182
f 193/19/183 191/19/183 195/19/183 197/19/183
f 199/10/184 200/9/184 202/9/184 201/10/184
f 199/19/28 195/19/28 203/19/28 205/19/28
f 197/19/28 195/19/28 199/19/28 201/19/28
f 198/9/185 197/10/185 201/10/185 202/9/185
f 203/10/186 204/9/186 206/9/186 205/10/186
f 195/10/187 196/9/187 204/9/187 203/10/187
f 200/9/188 199/10/188 205/10/188 206/9/188
f 196/9/125 200/9/125 206/9/125 204/9/125
f 26/9/189 87/6/189 208/26/189 207/46/189 27/34/189
f 207/46/190 208/26/190 211/47/190
f 46/9/191 27/34/191 207/46/191 210/26/191 95/6/191
f 209/27/190 210/26/190 211/47/190
f 211/47/190 208/26/190 209/27/190
f 210/19/192 211/19/192 207/19/192
f 29/14/193 30/13/193 213/48/193 212/30/193
f 30/13/194 164/13/194 214/49/194 213/48/194
f 164/13/195 163/14/195 215/29/195 214/49/195
f 163/14/196 29/14/196 212/30/196 215/29/196
f 47/13/197 29/14/197 217/31/197 216/48/197
f 29/14/198 163/14/198 218/31/198 217/31/198
f 163/14/195 168/13/195 219/48/195 218/31/195
f 168/13/199 47/13/199 216/48/199 219/48/199
f 220/31/200 221/48/200 223/49/200 222/29/200
f 225/48/200 224/31/200 227/31/200 226/48/200
f 217/31/201 218/31/201 227/31/201 224/31/201
f 216/48/202 217/31/202 224/31/202 225/48/202
f 213/48/203 214/49/203 223/49/203 221/48/203
f 286/50/204 287/51/204 296/51/204 293/50/204
f 212/30/205 213/48/205 221/48/205 220/31/205
f 219/48/206 216/48/206 225/48/206 226/48/206
f 231/33/207 234/2/207 233/1/207 232/13/207 240/52/207 242/53/207
f 183/1/208 182/13/208 232/13/208 233/1/208
f 181/32/209 184/2/209 234/2/209 231/32/209
f 231/33/207 242/53/207 241/52/207 228/13/207 229/1/207 230/2/207
f 180/2/210 181/33/210 231/33/210 230/2/210
f 182/13/211 239/54/211 240/55/211 232/13/211
f 178/13/212 179/1/212 229/1/212 228/13/212
f 235/41/213 236/56/213 237/14/213
f 240/52/207 241/57/207 242/53/207
f 235/41/214 243/58/214 238/44/214 239/54/214 244/43/214 236/42/214
f 238/44/215 241/45/215 240/55/215 239/54/215
f 235/41/216 171/13/217 243/58/218
f 247/59/219 245/60/219 251/60/219 252/59/219
f 246/61/220 247/59/220 252/59/220 253/61/220
f 273/62/221 246/61/221 253/61/221 280/62/221
f 276/63/222 248/64/222 255/64/222 283/63/222
f 178/13/223 238/44/224 247/59/224 246/61/223
f 238/44/225 243/58/225 245/60/225 247/59/225
f 244/43/226 239/54/226 249/65/226 248/64/226
f 239/54/227 182/13/228 250/66/228 249/65/227
f 175/13/229 244/43/230 248/64/230 276/63/230 278/67/231
f 250/66/232 277/68/232 282/68/232 256/66/232
f 249/65/235 250/66/235 256/66/235 254/65/235
f 248/64/236 249/65/236 254/65/236 255/64/236
f 171/13/237 178/13/223 246/61/223 273/62/238 275/73/239
f 243/58/218 171/13/217 275/73/241 274/74/241 245/60/241
f 182/13/228 175/13/229 278/67/231 277/68/242 250/66/228
f 273/62/238 274/81/258 275/73/239
f 276/63/259 277/82/242 278/67/231
f 279/74/262 274/74/262 273/62/262 280/62/262
f 276/63/263 283/63/263 282/68/263 277/68/263
f 245/60/264 274/74/264 279/74/264 251/60/264
f 214/49/265 215/29/265 286/50/265 285/85/265
f 215/29/266 222/29/267 287/51/268 286/50/266
f 222/29/267 223/49/269 288/86/269 287/51/268
f 223/49/270 214/49/270 285/85/270 288/86/270
f 218/31/271 219/48/271 290/87/271 289/88/271
f 219/48/272 226/48/272 291/39/272 290/87/272
f 226/48/273 227/31/273 292/40/273 291/39/273
f 227/31/274 218/31/274 289/88/274 292/40/274
f 285/85/277 286/50/277 293/50/277 294/85/277
f 292/40/278 289/88/278 297/88/278 299/40/278
f 287/51/279 288/86/279 295/86/279 296/51/279
f 288/86/280 285/85/280 294/85/280 295/86/280
f 290/87/281 291/39/281 300/39/281 298/87/281
f 289/88/282 290/87/282 298/87/282 297/88/282
f 118/28/122 117/5/122 306/35/122 305/28/122
f 117/5/283 115/5/283 304/5/283 306/35/283
f 120/5/122 118/28/122 305/28/122 301/5/122
f 115/5/117 116/12/117 303/38/117 304/5/117
f 119/5/284 120/5/284 301/5/284 302/5/284
f 116/12/117 119/5/117 302/5/117 303/38/117
usemtl Material.002
f 251/60/240 279/74/240 281/75/240 258/76/240 257/72/240
f 281/75/243 280/62/243 253/61/243 259/77/243 258/76/243
f 284/78/244 283/63/244 255/64/244 261/79/244 264/80/244
f 253/61/245 252/59/245 260/71/245 259/77/245
f 252/59/246 251/60/246 257/72/246 260/71/246
f 255/64/247 254/65/247 262/69/247 261/79/247
f 254/65/248 256/66/248 263/70/248 262/69/248
f 256/66/249 282/68/249 284/78/249 264/80/249 263/70/249
f 279/74/260 280/83/260 281/75/260
f 282/68/261 283/84/261 284/78/261
usemtl Material.003
f 262/69/233 263/70/233 272/70/233 269/69/233
f 260/71/234 257/72/234 266/72/234 267/71/234
f 266/72/250 265/76/250 268/77/250 267/71/250
f 270/79/251 269/69/251 272/70/251 271/80/251
f 261/79/252 262/69/252 269/69/252 270/79/252
f 258/76/253 259/77/253 268/77/253 265/76/253
f 263/70/254 264/80/254 271/80/254 272/70/254
f 257/72/255 258/76/255 265/76/255 266/72/255
f 264/80/256 261/79/256 270/79/256 271/80/256
f 259/77/257 260/71/257 267/71/257 268/77/257
usemtl Material.004
f 294/85/275 293/50/275 296/51/275 295/86/275
f 297/88/276 298/87/276 300/39/276 299/40/276
usemtl Material.005
f 303/38/117 302/5/117 125/5/117 122/12/117
f 302/5/118 301/5/118 126/5/118 125/5/118
f 121/5/121 122/12/121 124/12/121 123/5/121
f 125/5/121 126/5/121 124/12/121 122/12/121
f 304/5/117 303/38/117 122/12/117 121/5/117
f 301/5/122 305/28/122 124/28/122 126/5/122
f 306/35/123 304/5/123 121/5/123 123/5/123
f 305/28/122 306/35/122 123/5/122 124/28/122
f 110/12/112 113/5/112 312/5/112 307/12/112
f 113/5/285 114/5/285 310/37/285 312/5/285
f 112/28/111 111/5/111 311/5/111 309/36/111
f 111/5/286 109/5/286 308/5/286 311/5/286
f 109/5/112 110/12/112 307/12/112 308/5/112
f 114/5/111 112/28/111 309/36/111 310/37/111
f 105/5/287 103/5/287 318/35/115 313/5/114
f 108/5/108 106/28/108 314/36/108 315/5/108
f 103/5/113 104/12/113 317/12/113 318/35/113
f 104/12/113 107/5/113 316/35/113 317/12/113
f 106/28/108 105/5/108 313/5/108 314/36/108
f 107/5/288 108/5/288 315/5/106 316/35/105
usemtl Material.006
f 319/89/289 320/90/289 322/91/289 321/92/289
f 321/92/290 322/91/290 327/91/290 328/92/290
f 325/2/291 326/13/291 324/5/291 323/9/291
f 323/9/292 324/5/292 320/93/292 319/94/292
f 321/95/293 325/2/293 323/9/293 319/96/293
f 326/13/294 322/97/294 320/98/294 324/5/294
f 327/97/295 330/13/295 334/13/295 331/97/295
f 326/13/296 325/2/296 329/2/296 330/13/296
f 325/2/297 321/95/297 328/95/297 329/2/297
f 322/97/298 326/13/298 330/13/298 327/97/298
f 334/13/299 333/2/299 337/2/299 338/13/299
f 328/92/300 327/91/300 331/91/300 332/92/300
f 330/13/301 329/2/301 333/2/301 334/13/301
f 329/2/302 328/95/302 332/95/302 333/2/302
f 336/92/303 335/91/303 338/13/303 337/2/303
f 333/2/304 332/95/304 336/95/304 337/2/304
f 331/97/305 334/13/305 338/13/305 335/97/305
f 332/92/306 331/91/306 335/91/306 336/92/306
f 339/89/307 340/90/307 342/91/307 341/92/307
f 341/92/308 342/91/308 347/91/308 348/92/308
f 345/2/309 346/13/309 344/5/309 343/9/309
f 343/9/310 344/5/310 340/93/310 339/94/310
f 341/95/311 345/2/311 343/9/311 339/96/311
f 346/13/312 342/97/312 340/98/312 344/5/312
f 347/97/313 350/13/313 354/13/313 351/97/313
f 346/13/314 345/2/314 349/2/314 350/13/314
f 345/2/315 341/95/315 348/95/315 349/2/315
f 342/97/316 346/13/316 350/13/316 347/97/316
f 354/13/317 353/2/317 357/2/317 358/13/317
f 348/92/318 347/91/318 351/91/318 352/92/318
f 350/13/319 349/2/319 353/2/319 354/13/319
f 349/2/320 348/95/320 352/95/320 353/2/320
f 356/92/321 355/91/321 358/13/321 357/2/321
f 353/2/322 352/95/322 356/95/322 357/2/322
f 351/97/323 354/13/323 358/13/323 355/97/323
f 352/92/324 351/91/324 355/91/324 356/92/324
f 359/89/325 360/90/325 362/91/325 361/92/325
f 361/92/326 362/91/326 367/91/326 368/92/326
f 365/2/327 366/13/327 364/5/327 363/9/327
f 363/9/328 364/5/328 360/93/328 359/94/328
f 361/95/329 365/2/329 363/9/329 359/96/329
f 366/13/330 362/97/330 360/98/330 364/5/330
f 367/97/331 370/13/331 374/13/331 371/97/331
f 366/13/332 365/2/332 369/2/332 370/13/332
f 365/2/333 361/95/333 368/95/333 369/2/333
f 362/97/334 366/13/334 370/13/334 367/97/334
f 374/13/335 373/2/335 377/2/335 378/13/335
f 368/92/336 367/91/336 371/91/336 372/92/336
f 370/13/337 369/2/337 373/2/337 374/13/337
f 369/2/338 368/95/338 372/95/338 373/2/338
f 376/92/339 375/91/339 378/13/339 377/2/339
f 373/2/340 372/95/340 376/95/340 377/2/340
f 371/97/341 374/13/341 378/13/341 375/97/341
f 372/92/342 371/91/342 375/91/342 376/92/342
f 379/89/343 380/90/343 382/91/343 381/92/343
f 381/92/344 382/91/344 387/91/344 388/92/344
f 385/2/345 386/13/345 384/5/345 383/9/345
f 383/9/346 384/5/346 380/93/346 379/94/346
f 381/95/347 385/2/347 383/9/347 379/96/347
f 386/13/348 382/97/348 380/98/348 384/5/348
f 387/97/349 390/13/349 394/13/349 391/97/349
f 386/13/350 385/2/350 389/2/350 390/13/350
f 385/2/351 381/95/351 388/95/351 389/2/351
f 382/97/352 386/13/352 390/13/352 387/97/352
f 394/13/353 393/2/353 397/2/353 398/13/353
f 388/92/354 387/91/354 391/91/354 392/92/354
f 390/13/355 389/2/355 393/2/355 394/13/355
f 389/2/356 388/95/356 392/95/356 393/2/356
f 396/92/357 395/91/357 398/13/357 397/2/357
f 393/2/358 392/95/358 396/95/358 397/2/358
f 391/97/359 394/13/359 398/13/359 395/97/359
f 392/92/360 391/91/360 395/91/360 396/92/360
f 399/89/361 400/90/361 402/91/361 401/92/361
f 401/92/362 402/91/362 407/91/362 408/92/362
f 405/2/363 406/13/363 404/5/363 403/9/363
f 403/9/364 404/5/364 400/93/364 399/94/364
f 401/95/365 405/2/365 403/9/365 399/96/365
f 406/13/366 402/97/366 400/98/366 404/5/366
f 407/97/367 410/13/367 414/13/367 411/97/367
f 406/13/368 405/2/368 409/2/368 410/13/368
f 405/2/369 401/95/369 408/95/369 409/2/369
f 402/97/370 406/13/370 410/13/370 407/97/370
f 414/13/371 413/2/371 417/2/371 418/13/371
f 408/92/372 407/91/372 411/91/372 412/92/372
f 410/13/373 409/2/373 413/2/373 414/13/373
f 409/2/374 408/95/374 412/95/374 413/2/374
f 416/92/375 415/91/375 418/13/375 417/2/375
f 413/2/376 412/95/376 416/95/376 417/2/376
f 411/97/377 414/13/377 418/13/377 415/97/377
f 412/92/378 411/91/378 415/91/378 416/92/378
f 419/89/379 420/90/379 422/91/379 421/92/379
f 421/92/380 422/91/380 427/91/380 428/92/380
f 425/2/381 426/13/381 424/5/381 423/9/381
f 423/9/382 424/5/382 420/93/382 419/94/382
f 421/95/383 425/2/383 423/9/383 419/96/383
f 426/13/384 422/97/384 420/98/384 424/5/384
f 427/97/385 430/13/385 434/13/385 431/97/385
f 426/13/386 425/2/386 429/2/386 430/13/386
f 425/2/387 421/95/387 428/95/387 429/2/387
f 422/97/388 426/13/388 430/13/388 427/97/388
f 434/13/389 433/2/389 437/2/389 438/13/389
f 428/92/390 427/91/390 431/91/390 432/92/390
f 430/13/391 429/2/391 433/2/391 434/13/391
f 429/2/392 428/95/392 432/95/392 433/2/392
f 436/92/393 435/91/393 438/13/393 437/2/393
f 433/2/394 432/95/394 436/95/394 437/2/394
f 431/97/395 434/13/395 438/13/395 435/97/395
f 432/92/396 431/91/396 435/91/396 436/92/396
f 439/89/397 440/90/397 442/91/397 441/92/397
f 441/92/398 442/91/398 447/91/398 448/92/398
f 445/2/399 446/13/399 444/5/399 443/9/399
f 443/9/400 444/5/400 440/93/400 439/94/400
f 441/95/401 445/2/401 443/9/401 439/96/401
f 446/13/402 442/97/402 440/98/402 444/5/402
f 447/97/403 450/13/403 454/13/403 451/97/403
f 446/13/404 445/2/404 449/2/404 450/13/404
f 445/2/405 441/95/405 448/95/405 449/2/405
f 442/97/406 446/13/406 450/13/406 447/97/406
f 454/13/407 453/2/407 457/2/407 458/13/407
f 448/92/408 447/91/408 451/91/408 452/92/408
f 450/13/409 449/2/409 453/2/409 454/13/409
f 449/2/410 448/95/410 452/95/410 453/2/410
f 456/92/411 455/91/411 458/13/411 457/2/411
f 453/2/412 452/95/412 456/95/412 457/2/412
f 451/97/413 454/13/413 458/13/413 455/97/413
f 452/92/414 451/91/414 455/91/414 456/92/414
