# Blender 4.3.2
# www.blender.org
mtllib torus.mtl
o Torus
v 0.936176 0.000000 0.000000
v 0.919989 0.076155 0.000000
v 0.874226 0.139143 0.000000
v 0.806800 0.178071 0.000000
v 0.729369 0.186209 0.000000
v 0.655323 0.162150 0.000000
v 0.597464 0.110054 0.000000
v 0.565797 0.038928 0.000000
v 0.565797 -0.038928 0.000000
v 0.597464 -0.110054 0.000000
v 0.655323 -0.162150 0.000000
v 0.729369 -0.186209 0.000000
v 0.806800 -0.178071 0.000000
v 0.874226 -0.139143 0.000000
v 0.919989 -0.076155 0.000000
v 0.915718 0.000000 -0.194642
v 0.899885 0.076155 -0.191276
v 0.855122 0.139143 -0.181762
v 0.789169 0.178071 -0.167743
v 0.713431 0.186209 -0.151644
v 0.641003 0.162150 -0.136249
v 0.584408 0.110054 -0.124220
v 0.553433 0.038928 -0.117636
v 0.553433 -0.038928 -0.117636
v 0.584408 -0.110054 -0.124220
v 0.641003 -0.162150 -0.136249
v 0.713431 -0.186209 -0.151644
v 0.789169 -0.178071 -0.167743
v 0.855122 -0.139143 -0.181762
v 0.899885 -0.076155 -0.191276
v 0.855239 0.000000 -0.380777
v 0.840451 0.076155 -0.374193
v 0.798645 0.139143 -0.355580
v 0.737048 0.178071 -0.328155
v 0.666312 0.186209 -0.296661
v 0.598667 0.162150 -0.266544
v 0.545811 0.110054 -0.243011
v 0.516881 0.038928 -0.230130
v 0.516881 -0.038928 -0.230130
v 0.545811 -0.110054 -0.243011
v 0.598667 -0.162150 -0.266544
v 0.666312 -0.186209 -0.296661
v 0.737048 -0.178071 -0.328155
v 0.798645 -0.139143 -0.355580
v 0.840451 -0.076155 -0.374193
v 0.757382 0.000000 -0.550270
v 0.744286 0.076155 -0.540756
v 0.707263 0.139143 -0.513857
v 0.652715 0.178071 -0.474225
v 0.590072 0.186209 -0.428713
v 0.530168 0.162150 -0.385189
v 0.483359 0.110054 -0.351181
v 0.457740 0.038928 -0.332567
v 0.457740 -0.038928 -0.332567
v 0.483359 -0.110054 -0.351181
v 0.530168 -0.162150 -0.385189
v 0.590072 -0.186209 -0.428713
v 0.652715 -0.178071 -0.474225
v 0.707263 -0.139143 -0.513857
v 0.744286 -0.076155 -0.540756
v 0.626424 0.000000 -0.695714
v 0.615593 0.076155 -0.683685
v 0.584971 0.139143 -0.649676
v 0.539854 0.178071 -0.599569
v 0.488043 0.186209 -0.542027
v 0.438497 0.162150 -0.487000
v 0.399782 0.110054 -0.444003
v 0.378592 0.038928 -0.420469
v 0.378592 -0.038928 -0.420469
v 0.399782 -0.110054 -0.444003
v 0.438497 -0.162150 -0.487000
v 0.488043 -0.186209 -0.542027
v 0.539854 -0.178071 -0.599569
v 0.584971 -0.139143 -0.649676
v 0.615593 -0.076155 -0.683685
v 0.468088 0.000000 -0.810752
v 0.459994 0.076155 -0.796734
v 0.437113 0.139143 -0.757102
v 0.403400 0.178071 -0.698709
v 0.364685 0.186209 -0.631652
v 0.327662 0.162150 -0.567527
v 0.298732 0.110054 -0.517419
v 0.282899 0.038928 -0.489995
v 0.282899 -0.038928 -0.489995
v 0.298732 -0.110054 -0.517419
v 0.327662 -0.162150 -0.567527
v 0.364685 -0.186209 -0.631652
v 0.403400 -0.178071 -0.698709
v 0.437113 -0.139143 -0.757102
v 0.459994 -0.076155 -0.796734
v 0.289294 0.000000 -0.890356
v 0.284292 0.076155 -0.874961
v 0.270151 0.139143 -0.831438
v 0.249315 0.178071 -0.767312
v 0.225388 0.186209 -0.693671
v 0.202506 0.162150 -0.623249
v 0.184627 0.110054 -0.568222
v 0.174841 0.038928 -0.538105
v 0.174841 -0.038928 -0.538105
v 0.184627 -0.110054 -0.568222
v 0.202506 -0.162150 -0.623249
v 0.225388 -0.186209 -0.693671
v 0.249315 -0.178071 -0.767312
v 0.270151 -0.139143 -0.831438
v 0.284292 -0.076155 -0.874961
v 0.097857 0.000000 -0.931047
v 0.096165 0.076155 -0.914949
v 0.091381 0.139143 -0.869437
v 0.084333 0.178071 -0.802380
v 0.076240 0.186209 -0.725374
v 0.068500 0.162150 -0.651733
v 0.062452 0.110054 -0.594191
v 0.059142 0.038928 -0.562698
v 0.059142 -0.038928 -0.562698
v 0.062452 -0.110054 -0.594191
v 0.068500 -0.162150 -0.651733
v 0.076240 -0.186209 -0.725374
v 0.084333 -0.178071 -0.802380
v 0.091381 -0.139143 -0.869437
v 0.096165 -0.076155 -0.914949
v -0.097857 0.000000 -0.931047
v -0.096165 0.076155 -0.914949
v -0.091382 0.139143 -0.869437
v -0.084334 0.178071 -0.802380
v -0.076240 0.186209 -0.725374
v -0.068500 0.162150 -0.651733
v -0.062452 0.110054 -0.594191
v -0.059142 0.038928 -0.562698
v -0.059142 -0.038928 -0.562698
v -0.062452 -0.110054 -0.594191
v -0.068500 -0.162150 -0.651733
v -0.076240 -0.186209 -0.725374
v -0.084334 -0.178071 -0.802380
v -0.091382 -0.139143 -0.869437
v -0.096165 -0.076155 -0.914949
v -0.289294 0.000000 -0.890356
v -0.284292 0.076155 -0.874961
v -0.270151 0.139143 -0.831438
v -0.249315 0.178071 -0.767312
v -0.225388 0.186209 -0.693671
v -0.202506 0.162150 -0.623249
v -0.184627 0.110054 -0.568222
v -0.174841 0.038928 -0.538105
v -0.174841 -0.038928 -0.538105
v -0.184627 -0.110054 -0.568222
v -0.202506 -0.162150 -0.623249
v -0.225388 -0.186209 -0.693671
v -0.249315 -0.178071 -0.767312
v -0.270151 -0.139143 -0.831438
v -0.284292 -0.076155 -0.874961
v -0.468088 0.000000 -0.810752
v -0.459994 0.076155 -0.796734
v -0.437113 0.139143 -0.757102
v -0.403400 0.178071 -0.698709
v -0.364685 0.186209 -0.631652
v -0.327661 0.162150 -0.567527
v -0.298732 0.110054 -0.517419
v -0.282898 0.038928 -0.489995
v -0.282898 -0.038928 -0.489995
v -0.298732 -0.110054 -0.517419
v -0.327661 -0.162150 -0.567527
v -0.364685 -0.186209 -0.631652
v -0.403400 -0.178071 -0.698709
v -0.437113 -0.139143 -0.757102
v -0.459994 -0.076155 -0.796734
v -0.626424 0.000000 -0.695714
v -0.615593 0.076155 -0.683685
v -0.584971 0.139143 -0.649676
v -0.539854 0.178071 -0.599569
v -0.488043 0.186209 -0.542027
v -0.438497 0.162150 -0.487000
v -0.399782 0.110054 -0.444003
v -0.378592 0.038928 -0.420469
v -0.378592 -0.038928 -0.420469
v -0.399782 -0.110054 -0.444003
v -0.438497 -0.162150 -0.487000
v -0.488043 -0.186209 -0.542027
v -0.539854 -0.178071 -0.599569
v -0.584971 -0.139143 -0.649676
v -0.615593 -0.076155 -0.683685
v -0.757382 0.000000 -0.550270
v -0.744287 0.076155 -0.540756
v -0.707264 0.139143 -0.513857
v -0.652715 0.178071 -0.474225
v -0.590072 0.186209 -0.428712
v -0.530168 0.162150 -0.385189
v -0.483359 0.110054 -0.351181
v -0.457740 0.038928 -0.332567
v -0.457740 -0.038928 -0.332567
v -0.483359 -0.110054 -0.351181
v -0.530168 -0.162150 -0.385189
v -0.590072 -0.186209 -0.428712
v -0.652715 -0.178071 -0.474225
v -0.707264 -0.139143 -0.513857
v -0.744287 -0.076155 -0.540756
v -0.855239 0.000000 -0.380777
v -0.840452 0.076155 -0.374193
v -0.798645 0.139143 -0.355580
v -0.737048 0.178071 -0.328155
v -0.666312 0.186209 -0.296661
v -0.598668 0.162150 -0.266544
v -0.545811 0.110054 -0.243011
v -0.516881 0.038928 -0.230130
v -0.516881 -0.038928 -0.230130
v -0.545811 -0.110054 -0.243011
v -0.598668 -0.162150 -0.266544
v -0.666312 -0.186209 -0.296661
v -0.737048 -0.178071 -0.328155
v -0.798645 -0.139143 -0.355580
v -0.840452 -0.076155 -0.374193
v -0.915718 0.000000 -0.194642
v -0.899885 0.076155 -0.191277
v -0.855122 0.139143 -0.181762
v -0.789169 0.178071 -0.167743
v -0.713431 0.186209 -0.151645
v -0.641003 0.162150 -0.136249
v -0.584408 0.110054 -0.124220
v -0.553433 0.038928 -0.117636
v -0.553433 -0.038928 -0.117636
v -0.584408 -0.110054 -0.124220
v -0.641003 -0.162150 -0.136249
v -0.713431 -0.186209 -0.151645
v -0.789169 -0.178071 -0.167743
v -0.855122 -0.139143 -0.181762
v -0.899885 -0.076155 -0.191277
v -0.936176 0.000000 -0.000000
v -0.919989 0.076155 -0.000000
v -0.874226 0.139143 -0.000000
v -0.806800 0.178071 -0.000000
v -0.729369 0.186209 -0.000000
v -0.655323 0.162150 -0.000000
v -0.597464 0.110054 -0.000000
v -0.565797 0.038928 -0.000000
v -0.565797 -0.038928 -0.000000
v -0.597464 -0.110054 -0.000000
v -0.655323 -0.162150 -0.000000
v -0.729369 -0.186209 -0.000000
v -0.806800 -0.178071 -0.000000
v -0.874226 -0.139143 -0.000000
v -0.919989 -0.076155 -0.000000
v -0.915718 0.000000 0.194642
v -0.899885 0.076155 0.191277
v -0.855122 0.139143 0.181762
v -0.789169 0.178071 0.167743
v -0.713431 0.186209 0.151645
v -0.641003 0.162150 0.136249
v -0.584408 0.110054 0.124220
v -0.553433 0.038928 0.117636
v -0.553433 -0.038928 0.117636
v -0.584408 -0.110054 0.124220
v -0.641003 -0.162150 0.136249
v -0.713431 -0.186209 0.151645
v -0.789169 -0.178071 0.167743
v -0.855122 -0.139143 0.181762
v -0.899885 -0.076155 0.191277
v -0.855239 0.000000 0.380777
v -0.840452 0.076155 0.374193
v -0.798645 0.139143 0.355580
v -0.737048 0.178071 0.328155
v -0.666312 0.186209 0.296661
v -0.598668 0.162150 0.266544
v -0.545811 0.110054 0.243011
v -0.516881 0.038928 0.230130
v -0.516881 -0.038928 0.230130
v -0.545811 -0.110054 0.243011
v -0.598668 -0.162150 0.266544
v -0.666312 -0.186209 0.296661
v -0.737048 -0.178071 0.328155
v -0.798645 -0.139143 0.355580
v -0.840452 -0.076155 0.374193
v -0.757382 0.000000 0.550270
v -0.744287 0.076155 0.540756
v -0.707264 0.139143 0.513857
v -0.652715 0.178071 0.474225
v -0.590072 0.186209 0.428712
v -0.530168 0.162150 0.385189
v -0.483359 0.110054 0.351181
v -0.457740 0.038928 0.332567
v -0.457740 -0.038928 0.332567
v -0.483359 -0.110054 0.351181
v -0.530168 -0.162150 0.385189
v -0.590072 -0.186209 0.428712
v -0.652715 -0.178071 0.474225
v -0.707264 -0.139143 0.513857
v -0.744287 -0.076155 0.540756
v -0.626424 0.000000 0.695714
v -0.615593 0.076155 0.683685
v -0.584971 0.139143 0.649676
v -0.539854 0.178071 0.599569
v -0.488043 0.186209 0.542027
v -0.438497 0.162150 0.487000
v -0.399782 0.110054 0.444003
v -0.378592 0.038928 0.420469
v -0.378592 -0.038928 0.420469
v -0.399782 -0.110054 0.444003
v -0.438497 -0.162150 0.487000
v -0.488043 -0.186209 0.542027
v -0.539854 -0.178071 0.599569
v -0.584971 -0.139143 0.649676
v -0.615593 -0.076155 0.683685
v -0.468088 0.000000 0.810752
v -0.459994 0.076155 0.796734
v -0.437113 0.139143 0.757102
v -0.403400 0.178071 0.698709
v -0.364685 0.186209 0.631652
v -0.327661 0.162150 0.567527
v -0.298732 0.110054 0.517419
v -0.282898 0.038928 0.489995
v -0.282898 -0.038928 0.489995
v -0.298732 -0.110054 0.517419
v -0.327661 -0.162150 0.567527
v -0.364685 -0.186209 0.631652
v -0.403400 -0.178071 0.698709
v -0.437113 -0.139143 0.757102
v -0.459994 -0.076155 0.796734
v -0.289294 0.000000 0.890356
v -0.284292 0.076155 0.874961
v -0.270151 0.139143 0.831438
v -0.249315 0.178071 0.767312
v -0.225388 0.186209 0.693671
v -0.202506 0.162150 0.623249
v -0.184627 0.110054 0.568222
v -0.174841 0.038928 0.538105
v -0.174841 -0.038928 0.538105
v -0.184627 -0.110054 0.568222
v -0.202506 -0.162150 0.623249
v -0.225388 -0.186209 0.693671
v -0.249315 -0.178071 0.767312
v -0.270151 -0.139143 0.831438
v -0.284292 -0.076155 0.874961
v -0.097857 0.000000 0.931047
v -0.096165 0.076155 0.914949
v -0.091382 0.139143 0.869437
v -0.084334 0.178071 0.802380
v -0.076240 0.186209 0.725374
v -0.068500 0.162150 0.651733
v -0.062452 0.110054 0.594191
v -0.059142 0.038928 0.562698
v -0.059142 -0.038928 0.562698
v -0.062452 -0.110054 0.594191
v -0.068500 -0.162150 0.651733
v -0.076240 -0.186209 0.725374
v -0.084334 -0.178071 0.802380
v -0.091382 -0.139143 0.869437
v -0.096165 -0.076155 0.914949
v 0.097857 0.000000 0.931048
v 0.096165 0.076155 0.914949
v 0.091381 0.139143 0.869437
v 0.084333 0.178071 0.802380
v 0.076239 0.186209 0.725374
v 0.068500 0.162150 0.651733
v 0.062452 0.110054 0.594191
v 0.059142 0.038928 0.562698
v 0.059142 -0.038928 0.562698
v 0.062452 -0.110054 0.594191
v 0.068500 -0.162150 0.651733
v 0.076239 -0.186209 0.725374
v 0.084333 -0.178071 0.802380
v 0.091381 -0.139143 0.869437
v 0.096165 -0.076155 0.914949
v 0.289294 0.000000 0.890356
v 0.284292 0.076155 0.874961
v 0.270151 0.139143 0.831438
v 0.249315 0.178071 0.767312
v 0.225388 0.186209 0.693671
v 0.202506 0.162150 0.623249
v 0.184627 0.110054 0.568222
v 0.174841 0.038928 0.538105
v 0.174841 -0.038928 0.538105
v 0.184627 -0.110054 0.568222
v 0.202506 -0.162150 0.623249
v 0.225388 -0.186209 0.693671
v 0.249315 -0.178071 0.767312
v 0.270151 -0.139143 0.831438
v 0.284292 -0.076155 0.874961
v 0.468088 0.000000 0.810752
v 0.459994 0.076155 0.796734
v 0.437113 0.139143 0.757102
v 0.403400 0.178071 0.698709
v 0.364685 0.186209 0.631652
v 0.327662 0.162150 0.567527
v 0.298732 0.110054 0.517419
v 0.282899 0.038928 0.489995
v 0.282899 -0.038928 0.489995
v 0.298732 -0.110054 0.517419
v 0.327662 -0.162150 0.567527
v 0.364685 -0.186209 0.631652
v 0.403400 -0.178071 0.698709
v 0.437113 -0.139143 0.757102
v 0.459994 -0.076155 0.796734
v 0.626424 0.000000 0.695714
v 0.615592 0.076155 0.683685
v 0.584971 0.139143 0.649676
v 0.539854 0.178071 0.599569
v 0.488043 0.186209 0.542027
v 0.438497 0.162150 0.487000
v 0.399782 0.110054 0.444003
v 0.378592 0.038928 0.420469
v 0.378592 -0.038928 0.420469
v 0.399782 -0.110054 0.444003
v 0.438497 -0.162150 0.487000
v 0.488043 -0.186209 0.542027
v 0.539854 -0.178071 0.599569
v 0.584971 -0.139143 0.649676
v 0.615592 -0.076155 0.683685
v 0.757382 0.000000 0.550271
v 0.744286 0.076155 0.540756
v 0.707263 0.139143 0.513857
v 0.652714 0.178071 0.474225
v 0.590072 0.186209 0.428713
v 0.530167 0.162150 0.385190
v 0.483359 0.110054 0.351181
v 0.457739 0.038928 0.332567
v 0.457739 -0.038928 0.332567
v 0.483359 -0.110054 0.351181
v 0.530167 -0.162150 0.385190
v 0.590072 -0.186209 0.428713
v 0.652714 -0.178071 0.474225
v 0.707263 -0.139143 0.513857
v 0.744286 -0.076155 0.540756
v 0.855239 0.000000 0.380777
v 0.840452 0.076155 0.374193
v 0.798645 0.139143 0.355579
v 0.737048 0.178071 0.328155
v 0.666312 0.186209 0.296661
v 0.598668 0.162150 0.266544
v 0.545811 0.110054 0.243011
v 0.516881 0.038928 0.230130
v 0.516881 -0.038928 0.230130
v 0.545811 -0.110054 0.243011
v 0.598668 -0.162150 0.266544
v 0.666312 -0.186209 0.296661
v 0.737048 -0.178071 0.328155
v 0.798645 -0.139143 0.355579
v 0.840452 -0.076155 0.374193
v 0.915718 0.000000 0.194642
v 0.899885 0.076155 0.191276
v 0.855122 0.139143 0.181762
v 0.789169 0.178071 0.167743
v 0.713431 0.186209 0.151644
v 0.641003 0.162150 0.136249
v 0.584408 0.110054 0.124220
v 0.553433 0.038928 0.117636
v 0.553433 -0.038928 0.117636
v 0.584408 -0.110054 0.124220
v 0.641003 -0.162150 0.136249
v 0.713431 -0.186209 0.151644
v 0.789169 -0.178071 0.167743
v 0.855122 -0.139143 0.181762
v 0.899885 -0.076155 0.191276
vn 1.0000 -0.0000 -0.0000
vn 0.9158 0.4017 -0.0000
vn 0.6766 0.7363 -0.0000
vn 0.3214 0.9469 -0.0000
vn -0.0908 0.9959 -0.0000
vn -0.4895 0.8720 -0.0000
vn -0.8041 0.5945 -0.0000
vn -0.9775 0.2108 -0.0000
vn -0.9775 -0.2108 -0.0000
vn -0.8041 -0.5945 -0.0000
vn -0.4895 -0.8720 -0.0000
vn -0.0908 -0.9959 -0.0000
vn 0.3214 -0.9469 -0.0000
vn 0.6766 -0.7363 -0.0000
vn 0.9158 -0.4017 -0.0000
vn 0.9781 -0.0000 -0.2079
vn 0.8958 0.4017 -0.1904
vn 0.6619 0.7363 -0.1407
vn 0.3144 0.9469 -0.0668
vn -0.0888 0.9959 0.0189
vn -0.4788 0.8720 0.1018
vn -0.7866 0.5945 0.1672
vn -0.9562 0.2108 0.2032
vn -0.9562 -0.2108 0.2032
vn -0.7866 -0.5945 0.1672
vn -0.4788 -0.8720 0.1018
vn -0.0888 -0.9959 0.0189
vn 0.3144 -0.9469 -0.0668
vn 0.6619 -0.7363 -0.1407
vn 0.8958 -0.4017 -0.1904
vn 0.9135 -0.0000 -0.4067
vn 0.8366 0.4017 -0.3725
vn 0.6181 0.7363 -0.2752
vn 0.2936 0.9469 -0.1307
vn -0.0829 0.9959 0.0369
vn -0.4472 0.8720 0.1991
vn -0.7346 0.5945 0.3271
vn -0.8930 0.2108 0.3976
vn -0.8930 -0.2108 0.3976
vn -0.7346 -0.5945 0.3271
vn -0.4472 -0.8720 0.1991
vn -0.0829 -0.9959 0.0369
vn 0.2936 -0.9469 -0.1307
vn 0.6181 -0.7363 -0.2752
vn 0.8366 -0.4017 -0.3725
vn 0.8090 -0.0000 -0.5878
vn 0.7409 0.4017 -0.5383
vn 0.5474 0.7363 -0.3977
vn 0.2601 0.9469 -0.1889
vn -0.0734 0.9959 0.0534
vn -0.3960 0.8720 0.2877
vn -0.6506 0.5945 0.4727
vn -0.7908 0.2108 0.5746
vn -0.7908 -0.2108 0.5746
vn -0.6506 -0.5945 0.4727
vn -0.3960 -0.8720 0.2877
vn -0.0734 -0.9959 0.0534
vn 0.2601 -0.9469 -0.1889
vn 0.5474 -0.7363 -0.3977
vn 0.7409 -0.4017 -0.5383
vn 0.6691 -0.0000 -0.7431
vn 0.6128 0.4017 -0.6806
vn 0.4528 0.7363 -0.5028
vn 0.2151 0.9469 -0.2389
vn -0.0607 0.9959 0.0675
vn -0.3275 0.8720 0.3637
vn -0.5381 0.5945 0.5976
vn -0.6541 0.2108 0.7264
vn -0.6541 -0.2108 0.7264
vn -0.5381 -0.5945 0.5976
vn -0.3275 -0.8720 0.3637
vn -0.0607 -0.9959 0.0675
vn 0.2151 -0.9469 -0.2389
vn 0.4528 -0.7363 -0.5028
vn 0.6128 -0.4017 -0.6806
vn 0.5000 -0.0000 -0.8660
vn 0.4579 0.4017 -0.7931
vn 0.3383 0.7363 -0.5860
vn 0.1607 0.9469 -0.2784
vn -0.0454 0.9959 0.0786
vn -0.2447 0.8720 0.4239
vn -0.4021 0.5945 0.6964
vn -0.4888 0.2108 0.8466
vn -0.4888 -0.2108 0.8466
vn -0.4021 -0.5945 0.6964
vn -0.2447 -0.8720 0.4239
vn -0.0454 -0.9959 0.0786
vn 0.1607 -0.9469 -0.2784
vn 0.3383 -0.7363 -0.5860
vn 0.4579 -0.4017 -0.7931
vn 0.3090 -0.0000 -0.9511
vn 0.2830 0.4017 -0.8710
vn 0.2091 0.7363 -0.6435
vn 0.0993 0.9469 -0.3057
vn -0.0281 0.9959 0.0863
vn -0.1513 0.8720 0.4655
vn -0.2485 0.5945 0.7648
vn -0.3021 0.2108 0.9297
vn -0.3021 -0.2108 0.9297
vn -0.2485 -0.5945 0.7648
vn -0.1513 -0.8720 0.4655
vn -0.0281 -0.9959 0.0863
vn 0.0993 -0.9469 -0.3057
vn 0.2091 -0.7363 -0.6435
vn 0.2830 -0.4017 -0.8710
vn 0.1045 -0.0000 -0.9945
vn 0.0957 0.4017 -0.9108
vn 0.0707 0.7363 -0.6729
vn 0.0336 0.9469 -0.3197
vn -0.0095 0.9959 0.0903
vn -0.0512 0.8720 0.4868
vn -0.0841 0.5945 0.7997
vn -0.1022 0.2108 0.9722
vn -0.1022 -0.2108 0.9722
vn -0.0841 -0.5945 0.7997
vn -0.0512 -0.8720 0.4868
vn -0.0095 -0.9959 0.0903
vn 0.0336 -0.9469 -0.3197
vn 0.0707 -0.7363 -0.6729
vn 0.0957 -0.4017 -0.9108
vn -0.1045 -0.0000 -0.9945
vn -0.0957 0.4017 -0.9108
vn -0.0707 0.7363 -0.6729
vn -0.0336 0.9469 -0.3197
vn 0.0095 0.9959 0.0903
vn 0.0512 0.8720 0.4868
vn 0.0841 0.5945 0.7997
vn 0.1022 0.2108 0.9722
vn 0.1022 -0.2108 0.9722
vn 0.0841 -0.5945 0.7997
vn 0.0512 -0.8720 0.4868
vn 0.0095 -0.9959 0.0903
vn -0.0336 -0.9469 -0.3197
vn -0.0707 -0.7363 -0.6729
vn -0.0957 -0.4017 -0.9108
vn -0.3090 -0.0000 -0.9511
vn -0.2830 0.4017 -0.8710
vn -0.2091 0.7363 -0.6435
vn -0.0993 0.9469 -0.3057
vn 0.0281 0.9959 0.0863
vn 0.1513 0.8720 0.4655
vn 0.2485 0.5945 0.7648
vn 0.3021 0.2108 0.9297
vn 0.3021 -0.2108 0.9297
vn 0.2485 -0.5945 0.7648
vn 0.1513 -0.8720 0.4655
vn 0.0281 -0.9959 0.0863
vn -0.0993 -0.9469 -0.3057
vn -0.2091 -0.7363 -0.6435
vn -0.2830 -0.4017 -0.8710
vn -0.5000 -0.0000 -0.8660
vn -0.4579 0.4017 -0.7931
vn -0.3383 0.7363 -0.5860
vn -0.1607 0.9469 -0.2784
vn 0.0454 0.9959 0.0786
vn 0.2447 0.8720 0.4239
vn 0.4021 0.5945 0.6964
vn 0.4888 0.2108 0.8466
vn 0.4888 -0.2108 0.8466
vn 0.4021 -0.5945 0.6964
vn 0.2447 -0.8720 0.4239
vn 0.0454 -0.9959 0.0786
vn -0.1607 -0.9469 -0.2784
vn -0.3383 -0.7363 -0.5860
vn -0.4579 -0.4017 -0.7931
vn -0.6691 -0.0000 -0.7431
vn -0.6128 0.4017 -0.6806
vn -0.4528 0.7363 -0.5028
vn -0.2151 0.9469 -0.2389
vn 0.0607 0.9959 0.0675
vn 0.3275 0.8720 0.3637
vn 0.5381 0.5945 0.5976
vn 0.6541 0.2108 0.7264
vn 0.6541 -0.2108 0.7264
vn 0.5381 -0.5945 0.5976
vn 0.3275 -0.8720 0.3637
vn 0.0607 -0.9959 0.0675
vn -0.2151 -0.9469 -0.2389
vn -0.4528 -0.7363 -0.5028
vn -0.6128 -0.4017 -0.6806
vn -0.8090 -0.0000 -0.5878
vn -0.7409 0.4017 -0.5383
vn -0.5474 0.7363 -0.3977
vn -0.2601 0.9469 -0.1889
vn 0.0734 0.9959 0.0534
vn 0.3960 0.8720 0.2877
vn 0.6506 0.5945 0.4727
vn 0.7908 0.2108 0.5746
vn 0.7908 -0.2108 0.5746
vn 0.6506 -0.5945 0.4727
vn 0.3960 -0.8720 0.2877
vn 0.0734 -0.9959 0.0534
vn -0.2601 -0.9469 -0.1889
vn -0.5474 -0.7363 -0.3977
vn -0.7409 -0.4017 -0.5383
vn -0.9135 -0.0000 -0.4067
vn -0.8366 0.4017 -0.3725
vn -0.6181 0.7363 -0.2752
vn -0.2936 0.9469 -0.1307
vn 0.0829 0.9959 0.0369
vn 0.4472 0.8720 0.1991
vn 0.7346 0.5945 0.3271
vn 0.8930 0.2108 0.3976
vn 0.8930 -0.2108 0.3976
vn 0.7346 -0.5945 0.3271
vn 0.4472 -0.8720 0.1991
vn 0.0829 -0.9959 0.0369
vn -0.2936 -0.9469 -0.1307
vn -0.6181 -0.7363 -0.2752
vn -0.8366 -0.4017 -0.3725
vn -0.9781 -0.0000 -0.2079
vn -0.8958 0.4017 -0.1904
vn -0.6619 0.7363 -0.1407
vn -0.3144 0.9469 -0.0668
vn 0.0888 0.9959 0.0189
vn 0.4788 0.8720 0.1018
vn 0.7866 0.5945 0.1672
vn 0.9562 0.2108 0.2032
vn 0.9562 -0.2108 0.2032
vn 0.7866 -0.5945 0.1672
vn 0.4788 -0.8720 0.1018
vn 0.0888 -0.9959 0.0189
vn -0.3144 -0.9469 -0.0668
vn -0.6619 -0.7363 -0.1407
vn -0.8958 -0.4017 -0.1904
vn -1.0000 -0.0000 -0.0000
vn -0.9158 0.4017 -0.0000
vn -0.6766 0.7363 -0.0000
vn -0.3214 0.9469 -0.0000
vn 0.0908 0.9959 -0.0000
vn 0.4895 0.8720 -0.0000
vn 0.8041 0.5945 -0.0000
vn 0.9775 0.2108 -0.0000
vn 0.9775 -0.2108 -0.0000
vn 0.8041 -0.5945 -0.0000
vn 0.4895 -0.8720 -0.0000
vn 0.0908 -0.9959 -0.0000
vn -0.3214 -0.9469 -0.0000
vn -0.6766 -0.7363 -0.0000
vn -0.9158 -0.4017 -0.0000
vn -0.9781 -0.0000 0.2079
vn -0.8958 0.4017 0.1904
vn -0.6619 0.7363 0.1407
vn -0.3144 0.9469 0.0668
vn 0.0888 0.9959 -0.0189
vn 0.4788 0.8720 -0.1018
vn 0.7866 0.5945 -0.1672
vn 0.9562 0.2108 -0.2032
vn 0.9562 -0.2108 -0.2032
vn 0.7866 -0.5945 -0.1672
vn 0.4788 -0.8720 -0.1018
vn 0.0888 -0.9959 -0.0189
vn -0.3144 -0.9469 0.0668
vn -0.6619 -0.7363 0.1407
vn -0.8958 -0.4017 0.1904
vn -0.9135 -0.0000 0.4067
vn -0.8366 0.4017 0.3725
vn -0.6181 0.7363 0.2752
vn -0.2936 0.9469 0.1307
vn 0.0829 0.9959 -0.0369
vn 0.4472 0.8720 -0.1991
vn 0.7346 0.5945 -0.3271
vn 0.8930 0.2108 -0.3976
vn 0.8930 -0.2108 -0.3976
vn 0.7346 -0.5945 -0.3271
vn 0.4472 -0.8720 -0.1991
vn 0.0829 -0.9959 -0.0369
vn -0.2936 -0.9469 0.1307
vn -0.6181 -0.7363 0.2752
vn -0.8366 -0.4017 0.3725
vn -0.8090 -0.0000 0.5878
vn -0.7409 0.4017 0.5383
vn -0.5474 0.7363 0.3977
vn -0.2601 0.9469 0.1889
vn 0.0734 0.9959 -0.0534
vn 0.3960 0.8720 -0.2877
vn 0.6506 0.5945 -0.4727
vn 0.7908 0.2108 -0.5746
vn 0.7908 -0.2108 -0.5746
vn 0.6506 -0.5945 -0.4727
vn 0.3960 -0.8720 -0.2877
vn 0.0734 -0.9959 -0.0534
vn -0.2601 -0.9469 0.1889
vn -0.5474 -0.7363 0.3977
vn -0.7409 -0.4017 0.5383
vn -0.6691 -0.0000 0.7431
vn -0.6128 0.4017 0.6806
vn -0.4528 0.7363 0.5028
vn -0.2151 0.9469 0.2389
vn 0.0607 0.9959 -0.0675
vn 0.3275 0.8720 -0.3637
vn 0.5381 0.5945 -0.5976
vn 0.6541 0.2108 -0.7264
vn 0.6541 -0.2108 -0.7264
vn 0.5381 -0.5945 -0.5976
vn 0.3275 -0.8720 -0.3637
vn 0.0607 -0.9959 -0.0675
vn -0.2151 -0.9469 0.2389
vn -0.4528 -0.7363 0.5028
vn -0.6128 -0.4017 0.6806
vn -0.5000 -0.0000 0.8660
vn -0.4579 0.4017 0.7931
vn -0.3383 0.7363 0.5860
vn -0.1607 0.9469 0.2784
vn 0.0454 0.9959 -0.0786
vn 0.2447 0.8720 -0.4239
vn 0.4021 0.5945 -0.6964
vn 0.4888 0.2108 -0.8466
vn 0.4888 -0.2108 -0.8466
vn 0.4021 -0.5945 -0.6964
vn 0.2447 -0.8720 -0.4239
vn 0.0454 -0.9959 -0.0786
vn -0.1607 -0.9469 0.2784
vn -0.3383 -0.7363 0.5860
vn -0.4579 -0.4017 0.7931
vn -0.3090 -0.0000 0.9511
vn -0.2830 0.4017 0.8710
vn -0.2091 0.7363 0.6435
vn -0.0993 0.9469 0.3057
vn 0.0281 0.9959 -0.0863
vn 0.1513 0.8720 -0.4655
vn 0.2485 0.5945 -0.7648
vn 0.3021 0.2108 -0.9297
vn 0.3021 -0.2108 -0.9297
vn 0.2485 -0.5945 -0.7648
vn 0.1513 -0.8720 -0.4655
vn 0.0281 -0.9959 -0.0863
vn -0.0993 -0.9469 0.3057
vn -0.2091 -0.7363 0.6435
vn -0.2830 -0.4017 0.8710
vn -0.1045 -0.0000 0.9945
vn -0.0957 0.4017 0.9108
vn -0.0707 0.7363 0.6729
vn -0.0336 0.9469 0.3197
vn 0.0095 0.9959 -0.0903
vn 0.0512 0.8720 -0.4868
vn 0.0841 0.5945 -0.7997
vn 0.1022 0.2108 -0.9722
vn 0.1022 -0.2108 -0.9722
vn 0.0841 -0.5945 -0.7997
vn 0.0512 -0.8720 -0.4868
vn 0.0095 -0.9959 -0.0903
vn -0.0336 -0.9469 0.3197
vn -0.0707 -0.7363 0.6729
vn -0.0957 -0.4017 0.9108
vn 0.1045 -0.0000 0.9945
vn 0.0957 0.4017 0.9108
vn 0.0707 0.7363 0.6729
vn 0.0336 0.9469 0.3197
vn -0.0095 0.9959 -0.0903
vn -0.0512 0.8720 -0.4868
vn -0.0841 0.5945 -0.7997
vn -0.1022 0.2108 -0.9722
vn -0.1022 -0.2108 -0.9722
vn -0.0841 -0.5945 -0.7997
vn -0.0512 -0.8720 -0.4868
vn -0.0095 -0.9959 -0.0903
vn 0.0336 -0.9469 0.3197
vn 0.0707 -0.7363 0.6729
vn 0.0957 -0.4017 0.9108
vn 0.3090 -0.0000 0.9511
vn 0.2830 0.4017 0.8710
vn 0.2091 0.7363 0.6435
vn 0.0993 0.9469 0.3057
vn -0.0281 0.9959 -0.0863
vn -0.1513 0.8720 -0.4655
vn -0.2485 0.5945 -0.7648
vn -0.3021 0.2108 -0.9297
vn -0.3021 -0.2108 -0.9297
vn -0.2485 -0.5945 -0.7648
vn -0.1513 -0.8720 -0.4655
vn -0.0281 -0.9959 -0.0863
vn 0.0993 -0.9469 0.3057
vn 0.2091 -0.7363 0.6435
vn 0.2830 -0.4017 0.8710
vn 0.5000 -0.0000 0.8660
vn 0.4579 0.4017 0.7931
vn 0.3383 0.7363 0.5860
vn 0.1607 0.9469 0.2784
vn -0.0454 0.9959 -0.0786
vn -0.2447 0.8720 -0.4239
vn -0.4021 0.5945 -0.6964
vn -0.4888 0.2108 -0.8466
vn -0.4888 -0.2108 -0.8466
vn -0.4021 -0.5945 -0.6964
vn -0.2447 -0.8720 -0.4239
vn -0.0454 -0.9959 -0.0786
vn 0.1607 -0.9469 0.2784
vn 0.3383 -0.7363 0.5860
vn 0.4579 -0.4017 0.7931
vn 0.6691 -0.0000 0.7431
vn 0.6128 0.4017 0.6806
vn 0.4528 0.7363 0.5028
vn 0.2151 0.9469 0.2389
vn -0.0607 0.9959 -0.0675
vn -0.3275 0.8720 -0.3637
vn -0.5381 0.5945 -0.5976
vn -0.6541 0.2108 -0.7264
vn -0.6541 -0.2108 -0.7264
vn -0.5381 -0.5945 -0.5976
vn -0.3275 -0.8720 -0.3637
vn -0.0607 -0.9959 -0.0675
vn 0.2151 -0.9469 0.2389
vn 0.4528 -0.7363 0.5028
vn 0.6128 -0.4017 0.6806
vn 0.8090 -0.0000 0.5878
vn 0.7409 0.4017 0.5383
vn 0.5474 0.7363 0.3977
vn 0.2601 0.9469 0.1889
vn -0.0734 0.9959 -0.0534
vn -0.3960 0.8720 -0.2877
vn -0.6506 0.5945 -0.4727
vn -0.7908 0.2108 -0.5746
vn -0.7908 -0.2108 -0.5746
vn -0.6506 -0.5945 -0.4727
vn -0.3960 -0.8720 -0.2877
vn -0.0734 -0.9959 -0.0534
vn 0.2601 -0.9469 0.1889
vn 0.5474 -0.7363 0.3977
vn 0.7409 -0.4017 0.5383
vn 0.9135 -0.0000 0.4067
vn 0.8366 0.4017 0.3725
vn 0.6181 0.7363 0.2752
vn 0.2936 0.9469 0.1307
vn -0.0829 0.9959 -0.0369
vn -0.4472 0.8720 -0.1991
vn -0.7346 0.5945 -0.3271
vn -0.8930 0.2108 -0.3976
vn -0.8930 -0.2108 -0.3976
vn -0.7346 -0.5945 -0.3271
vn -0.4472 -0.8720 -0.1991
vn -0.0829 -0.9959 -0.0369
vn 0.2936 -0.9469 0.1307
vn 0.6181 -0.7363 0.2752
vn 0.8366 -0.4017 0.3725
vn 0.9781 -0.0000 0.2079
vn 0.8958 0.4017 0.1904
vn 0.6619 0.7363 0.1407
vn 0.3144 0.9469 0.0668
vn -0.0888 0.9959 -0.0189
vn -0.4788 0.8720 -0.1018
vn -0.7866 0.5945 -0.1672
vn -0.9562 0.2108 -0.2032
vn -0.9562 -0.2108 -0.2032
vn -0.7866 -0.5945 -0.1672
vn -0.4788 -0.8720 -0.1018
vn -0.0888 -0.9959 -0.0189
vn 0.3144 -0.9469 0.0668
vn 0.6619 -0.7363 0.1407
vn 0.8958 -0.4017 0.1904
vt 0.500000 0.533333
vt 0.533333 0.533333
vt 0.533333 0.600000
vt 0.500000 0.600000
vt 0.533333 0.666667
vt 0.500000 0.666667
vt 0.533333 0.733333
vt 0.500000 0.733333
vt 0.533333 0.800000
vt 0.500000 0.800000
vt 0.533333 0.866667
vt 0.500000 0.866667
vt 0.533333 0.933333
vt 0.500000 0.933333
vt 0.533333 1.000000
vt 0.500000 1.000000
vt 0.500000 -0.000000
vt 0.533333 -0.000000
vt 0.533333 0.066667
vt 0.500000 0.066667
vt 0.533333 0.133333
vt 0.500000 0.133333
vt 0.533333 0.200000
vt 0.500000 0.200000
vt 0.533333 0.266667
vt 0.500000 0.266667
vt 0.533333 0.333333
vt 0.500000 0.333333
vt 0.533333 0.400000
vt 0.500000 0.400000
vt 0.533333 0.466667
vt 0.500000 0.466667
vt 0.566667 0.533333
vt 0.566667 0.600000
vt 0.566667 0.666667
vt 0.566667 0.733333
vt 0.566667 0.800000
vt 0.566667 0.866667
vt 0.566667 0.933333
vt 0.566667 1.000000
vt 0.566667 -0.000000
vt 0.566667 0.066667
vt 0.566667 0.133333
vt 0.566667 0.200000
vt 0.566667 0.266667
vt 0.566667 0.333333
vt 0.566667 0.400000
vt 0.566667 0.466667
vt 0.600000 0.533333
vt 0.600000 0.600000
vt 0.600000 0.666667
vt 0.600000 0.733333
vt 0.600000 0.800000
vt 0.600000 0.866667
vt 0.600000 0.933333
vt 0.600000 1.000000
vt 0.600000 -0.000000
vt 0.600000 0.066667
vt 0.600000 0.133333
vt 0.600000 0.200000
vt 0.600000 0.266667
vt 0.600000 0.333333
vt 0.600000 0.400000
vt 0.600000 0.466667
vt 0.633333 0.533333
vt 0.633333 0.600000
vt 0.633333 0.666667
vt 0.633333 0.733333
vt 0.633333 0.800000
vt 0.633333 0.866667
vt 0.633333 0.933333
vt 0.633333 1.000000
vt 0.633333 -0.000000
vt 0.633333 0.066667
vt 0.633333 0.133333
vt 0.633333 0.200000
vt 0.633333 0.266667
vt 0.633333 0.333333
vt 0.633333 0.400000
vt 0.633333 0.466667
vt 0.666667 0.533333
vt 0.666667 0.600000
vt 0.666667 0.666667
vt 0.666667 0.733333
vt 0.666667 0.800000
vt 0.666667 0.866667
vt 0.666667 0.933333
vt 0.666667 1.000000
vt 0.666667 -0.000000
vt 0.666667 0.066667
vt 0.666667 0.133333
vt 0.666667 0.200000
vt 0.666667 0.266667
vt 0.666667 0.333333
vt 0.666667 0.400000
vt 0.666667 0.466667
vt 0.700000 0.533333
vt 0.700000 0.600000
vt 0.700000 0.666667
vt 0.700000 0.733333
vt 0.700000 0.800000
vt 0.700000 0.866667
vt 0.700000 0.933333
vt 0.700000 1.000000
vt 0.700000 -0.000000
vt 0.700000 0.066667
vt 0.700000 0.133333
vt 0.700000 0.200000
vt 0.700000 0.266667
vt 0.700000 0.333333
vt 0.700000 0.400000
vt 0.700000 0.466667
vt 0.733333 0.533333
vt 0.733333 0.600000
vt 0.733333 0.666667
vt 0.733333 0.733333
vt 0.733333 0.800000
vt 0.733333 0.866667
vt 0.733333 0.933333
vt 0.733333 1.000000
vt 0.733333 -0.000000
vt 0.733333 0.066667
vt 0.733333 0.133333
vt 0.733333 0.200000
vt 0.733333 0.266667
vt 0.733333 0.333333
vt 0.733333 0.400000
vt 0.733333 0.466667
vt 0.766667 0.533333
vt 0.766667 0.600000
vt 0.766667 0.666667
vt 0.766667 0.733333
vt 0.766667 0.800000
vt 0.766667 0.866667
vt 0.766667 0.933333
vt 0.766667 1.000000
vt 0.766667 -0.000000
vt 0.766667 0.066667
vt 0.766667 0.133333
vt 0.766667 0.200000
vt 0.766667 0.266667
vt 0.766667 0.333333
vt 0.766667 0.400000
vt 0.766667 0.466667
vt 0.800000 0.533333
vt 0.800000 0.600000
vt 0.800000 0.666667
vt 0.800000 0.733333
vt 0.800000 0.800000
vt 0.800000 0.866667
vt 0.800000 0.933333
vt 0.800000 1.000000
vt 0.800000 -0.000000
vt 0.800000 0.066667
vt 0.800000 0.133333
vt 0.800000 0.200000
vt 0.800000 0.266667
vt 0.800000 0.333333
vt 0.800000 0.400000
vt 0.800000 0.466667
vt 0.833333 0.533333
vt 0.833333 0.600000
vt 0.833333 0.666667
vt 0.833333 0.733333
vt 0.833333 0.800000
vt 0.833333 0.866667
vt 0.833333 0.933333
vt 0.833333 1.000000
vt 0.833333 -0.000000
vt 0.833333 0.066667
vt 0.833333 0.133333
vt 0.833333 0.200000
vt 0.833333 0.266667
vt 0.833333 0.333333
vt 0.833333 0.400000
vt 0.833333 0.466667
vt 0.866667 0.533333
vt 0.866667 0.600000
vt 0.866667 0.666667
vt 0.866667 0.733333
vt 0.866667 0.800000
vt 0.866667 0.866667
vt 0.866667 0.933333
vt 0.866667 1.000000
vt 0.866667 -0.000000
vt 0.866667 0.066667
vt 0.866667 0.133333
vt 0.866667 0.200000
vt 0.866667 0.266667
vt 0.866667 0.333333
vt 0.866667 0.400000
vt 0.866667 0.466667
vt 0.900000 0.533333
vt 0.900000 0.600000
vt 0.900000 0.666667
vt 0.900000 0.733333
vt 0.900000 0.800000
vt 0.900000 0.866667
vt 0.900000 0.933333
vt 0.900000 1.000000
vt 0.900000 -0.000000
vt 0.900000 0.066667
vt 0.900000 0.133333
vt 0.900000 0.200000
vt 0.900000 0.266667
vt 0.900000 0.333333
vt 0.900000 0.400000
vt 0.900000 0.466667
vt 0.933333 0.533333
vt 0.933333 0.600000
vt 0.933333 0.666667
vt 0.933333 0.733333
vt 0.933333 0.800000
vt 0.933333 0.866667
vt 0.933333 0.933333
vt 0.933333 1.000000
vt 0.933333 -0.000000
vt 0.933333 0.066667
vt 0.933333 0.133333
vt 0.933333 0.200000
vt 0.933333 0.266667
vt 0.933333 0.333333
vt 0.933333 0.400000
vt 0.933333 0.466667
vt 0.966667 0.533333
vt 0.966667 0.600000
vt 0.966667 0.666667
vt 0.966667 0.733333
vt 0.966667 0.800000
vt 0.966667 0.866667
vt 0.966667 0.933333
vt 0.966667 1.000000
vt 0.966667 -0.000000
vt 0.966667 0.066667
vt 0.966667 0.133333
vt 0.966667 0.200000
vt 0.966667 0.266667
vt 0.966667 0.333333
vt 0.966667 0.400000
vt 0.966667 0.466667
vt 1.000000 0.533333
vt 1.000000 0.600000
vt 1.000000 0.666667
vt 1.000000 0.733333
vt 1.000000 0.800000
vt 1.000000 0.866667
vt 1.000000 0.933333
vt 1.000000 1.000000
vt 1.000000 -0.000000
vt 1.000000 0.066667
vt 1.000000 0.133333
vt 1.000000 0.200000
vt 1.000000 0.266667
vt 1.000000 0.333333
vt 1.000000 0.400000
vt 1.000000 0.466667
vt -0.000000 0.533333
vt 0.033333 0.533333
vt 0.033333 0.600000
vt -0.000000 0.600000
vt 0.033333 0.666667
vt -0.000000 0.666667
vt 0.033333 0.733333
vt -0.000000 0.733333
vt 0.033333 0.800000
vt -0.000000 0.800000
vt 0.033333 0.866667
vt -0.000000 0.866667
vt 0.033333 0.933333
vt -0.000000 0.933333
vt 0.033333 1.000000
vt -0.000000 1.000000
vt -0.000000 -0.000000
vt 0.033333 -0.000000
vt 0.033333 0.066667
vt -0.000000 0.066667
vt 0.033333 0.133333
vt -0.000000 0.133333
vt 0.033333 0.200000
vt -0.000000 0.200000
vt 0.033333 0.266667
vt -0.000000 0.266667
vt 0.033333 0.333333
vt -0.000000 0.333333
vt 0.033333 0.400000
vt -0.000000 0.400000
vt 0.033333 0.466667
vt -0.000000 0.466667
vt 0.066667 0.533333
vt 0.066667 0.600000
vt 0.066667 0.666667
vt 0.066667 0.733333
vt 0.066667 0.800000
vt 0.066667 0.866667
vt 0.066667 0.933333
vt 0.066667 1.000000
vt 0.066667 -0.000000
vt 0.066667 0.066667
vt 0.066667 0.133333
vt 0.066667 0.200000
vt 0.066667 0.266667
vt 0.066667 0.333333
vt 0.066667 0.400000
vt 0.066667 0.466667
vt 0.100000 0.533333
vt 0.100000 0.600000
vt 0.100000 0.666667
vt 0.100000 0.733333
vt 0.100000 0.800000
vt 0.100000 0.866667
vt 0.100000 0.933333
vt 0.100000 1.000000
vt 0.100000 -0.000000
vt 0.100000 0.066667
vt 0.100000 0.133333
vt 0.100000 0.200000
vt 0.100000 0.266667
vt 0.100000 0.333333
vt 0.100000 0.400000
vt 0.100000 0.466667
vt 0.133333 0.533333
vt 0.133333 0.600000
vt 0.133333 0.666667
vt 0.133333 0.733333
vt 0.133333 0.800000
vt 0.133333 0.866667
vt 0.133333 0.933333
vt 0.133333 1.000000
vt 0.133333 -0.000000
vt 0.133333 0.066667
vt 0.133333 0.133333
vt 0.133333 0.200000
vt 0.133333 0.266667
vt 0.133333 0.333333
vt 0.133333 0.400000
vt 0.133333 0.466667
vt 0.166667 0.533333
vt 0.166667 0.600000
vt 0.166667 0.666667
vt 0.166667 0.733333
vt 0.166667 0.800000
vt 0.166667 0.866667
vt 0.166667 0.933333
vt 0.166667 1.000000
vt 0.166667 -0.000000
vt 0.166667 0.066667
vt 0.166667 0.133333
vt 0.166667 0.200000
vt 0.166667 0.266667
vt 0.166667 0.333333
vt 0.166667 0.400000
vt 0.166667 0.466667
vt 0.200000 0.533333
vt 0.200000 0.600000
vt 0.200000 0.666667
vt 0.200000 0.733333
vt 0.200000 0.800000
vt 0.200000 0.866667
vt 0.200000 0.933333
vt 0.200000 1.000000
vt 0.200000 -0.000000
vt 0.200000 0.066667
vt 0.200000 0.133333
vt 0.200000 0.200000
vt 0.200000 0.266667
vt 0.200000 0.333333
vt 0.200000 0.400000
vt 0.200000 0.466667
vt 0.233333 0.533333
vt 0.233333 0.600000
vt 0.233333 0.666667
vt 0.233333 0.733333
vt 0.233333 0.800000
vt 0.233333 0.866667
vt 0.233333 0.933333
vt 0.233333 1.000000
vt 0.233333 -0.000000
vt 0.233333 0.066667
vt 0.233333 0.133333
vt 0.233333 0.200000
vt 0.233333 0.266667
vt 0.233333 0.333333
vt 0.233333 0.400000
vt 0.233333 0.466667
vt 0.266667 0.533333
vt 0.266667 0.600000
vt 0.266667 0.666667
vt 0.266667 0.733333
vt 0.266667 0.800000
vt 0.266667 0.866667
vt 0.266667 0.933333
vt 0.266667 1.000000
vt 0.266667 -0.000000
vt 0.266667 0.066667
vt 0.266667 0.133333
vt 0.266667 0.200000
vt 0.266667 0.266667
vt 0.266667 0.333333
vt 0.266667 0.400000
vt 0.266667 0.466667
vt 0.300000 0.533333
vt 0.300000 0.600000
vt 0.300000 0.666667
vt 0.300000 0.733333
vt 0.300000 0.800000
vt 0.300000 0.866667
vt 0.300000 0.933333
vt 0.300000 1.000000
vt 0.300000 -0.000000
vt 0.300000 0.066667
vt 0.300000 0.133333
vt 0.300000 0.200000
vt 0.300000 0.266667
vt 0.300000 0.333333
vt 0.300000 0.400000
vt 0.300000 0.466667
vt 0.333333 0.533333
vt 0.333333 0.600000
vt 0.333333 0.666667
vt 0.333333 0.733333
vt 0.333333 0.800000
vt 0.333333 0.866667
vt 0.333333 0.933333
vt 0.333333 1.000000
vt 0.333333 -0.000000
vt 0.333333 0.066667
vt 0.333333 0.133333
vt 0.333333 0.200000
vt 0.333333 0.266667
vt 0.333333 0.333333
vt 0.333333 0.400000
vt 0.333333 0.466667
vt 0.366667 0.533333
vt 0.366667 0.600000
vt 0.366667 0.666667
vt 0.366667 0.733333
vt 0.366667 0.800000
vt 0.366667 0.866667
vt 0.366667 0.933333
vt 0.366667 1.000000
vt 0.366667 -0.000000
vt 0.366667 0.066667
vt 0.366667 0.133333
vt 0.366667 0.200000
vt 0.366667 0.266667
vt 0.366667 0.333333
vt 0.366667 0.400000
vt 0.366667 0.466667
vt 0.400000 0.533333
vt 0.400000 0.600000
vt 0.400000 0.666667
vt 0.400000 0.733333
vt 0.400000 0.800000
vt 0.400000 0.866667
vt 0.400000 0.933333
vt 0.400000 1.000000
vt 0.400000 -0.000000
vt 0.400000 0.066667
vt 0.400000 0.133333
vt 0.400000 0.200000
vt 0.400000 0.266667
vt 0.400000 0.333333
vt 0.400000 0.400000
vt 0.400000 0.466667
vt 0.433333 0.533333
vt 0.433333 0.600000
vt 0.433333 0.666667
vt 0.433333 0.733333
vt 0.433333 0.800000
vt 0.433333 0.866667
vt 0.433333 0.933333
vt 0.433333 1.000000
vt 0.433333 -0.000000
vt 0.433333 0.066667
vt 0.433333 0.133333
vt 0.433333 0.200000
vt 0.433333 0.266667
vt 0.433333 0.333333
vt 0.433333 0.400000
vt 0.433333 0.466667
vt 0.466667 0.533333
vt 0.466667 0.600000
vt 0.466667 0.666667
vt 0.466667 0.733333
vt 0.466667 0.800000
vt 0.466667 0.866667
vt 0.466667 0.933333
vt 0.466667 1.000000
vt 0.466667 -0.000000
vt 0.466667 0.066667
vt 0.466667 0.133333
vt 0.466667 0.200000
vt 0.466667 0.266667
vt 0.466667 0.333333
vt 0.466667 0.400000
vt 0.466667 0.466667
s 1
f 1/1/1 16/2/16 17/3/17 2/4/2
f 2/4/2 17/3/17 18/5/18 3/6/3
f 3/6/3 18/5/18 19/7/19 4/8/4
f 4/8/4 19/7/19 20/9/20 5/10/5
f 5/10/5 20/9/20 21/11/21 6/12/6
f 6/12/6 21/11/21 22/13/22 7/14/7
f 7/14/7 22/13/22 23/15/23 8/16/8
f 8/17/8 23/18/23 24/19/24 9/20/9
f 9/20/9 24/19/24 25/21/25 10/22/10
f 10/22/10 25/21/25 26/23/26 11/24/11
f 11/24/11 26/23/26 27/25/27 12/26/12
f 12/26/12 27/25/27 28/27/28 13/28/13
f 13/28/13 28/27/28 29/29/29 14/30/14
f 14/30/14 29/29/29 30/31/30 15/32/15
f 15/32/15 30/31/30 16/2/16 1/1/1
f 16/2/16 31/33/31 32/34/32 17/3/17
f 17/3/17 32/34/32 33/35/33 18/5/18
f 18/5/18 33/35/33 34/36/34 19/7/19
f 19/7/19 34/36/34 35/37/35 20/9/20
f 20/9/20 35/37/35 36/38/36 21/11/21
f 21/11/21 36/38/36 37/39/37 22/13/22
f 22/13/22 37/39/37 38/40/38 23/15/23
f 23/18/23 38/41/38 39/42/39 24/19/24
f 24/19/24 39/42/39 40/43/40 25/21/25
f 25/21/25 40/43/40 41/44/41 26/23/26
f 26/23/26 41/44/41 42/45/42 27/25/27
f 27/25/27 42/45/42 43/46/43 28/27/28
f 28/27/28 43/46/43 44/47/44 29/29/29
f 29/29/29 44/47/44 45/48/45 30/31/30
f 30/31/30 45/48/45 31/33/31 16/2/16
f 31/33/31 46/49/46 47/50/47 32/34/32
f 32/34/32 47/50/47 48/51/48 33/35/33
f 33/35/33 48/51/48 49/52/49 34/36/34
f 34/36/34 49/52/49 50/53/50 35/37/35
f 35/37/35 50/53/50 51/54/51 36/38/36
f 36/38/36 51/54/51 52/55/52 37/39/37
f 37/39/37 52/55/52 53/56/53 38/40/38
f 38/41/38 53/57/53 54/58/54 39/42/39
f 39/42/39 54/58/54 55/59/55 40/43/40
f 40/43/40 55/59/55 56/60/56 41/44/41
f 41/44/41 56/60/56 57/61/57 42/45/42
f 42/45/42 57/61/57 58/62/58 43/46/43
f 43/46/43 58/62/58 59/63/59 44/47/44
f 44/47/44 59/63/59 60/64/60 45/48/45
f 45/48/45 60/64/60 46/49/46 31/33/31
f 46/49/46 61/65/61 62/66/62 47/50/47
f 47/50/47 62/66/62 63/67/63 48/51/48
f 48/51/48 63/67/63 64/68/64 49/52/49
f 49/52/49 64/68/64 65/69/65 50/53/50
f 50/53/50 65/69/65 66/70/66 51/54/51
f 51/54/51 66/70/66 67/71/67 52/55/52
f 52/55/52 67/71/67 68/72/68 53/56/53
f 53/57/53 68/73/68 69/74/69 54/58/54
f 54/58/54 69/74/69 70/75/70 55/59/55
f 55/59/55 70/75/70 71/76/71 56/60/56
f 56/60/56 71/76/71 72/77/72 57/61/57
f 57/61/57 72/77/72 73/78/73 58/62/58
f 58/62/58 73/78/73 74/79/74 59/63/59
f 59/63/59 74/79/74 75/80/75 60/64/60
f 60/64/60 75/80/75 61/65/61 46/49/46
f 61/65/61 76/81/76 77/82/77 62/66/62
f 62/66/62 77/82/77 78/83/78 63/67/63
f 63/67/63 78/83/78 79/84/79 64/68/64
f 64/68/64 79/84/79 80/85/80 65/69/65
f 65/69/65 80/85/80 81/86/81 66/70/66
f 66/70/66 81/86/81 82/87/82 67/71/67
f 67/71/67 82/87/82 83/88/83 68/72/68
f 68/73/68 83/89/83 84/90/84 69/74/69
f 69/74/69 84/90/84 85/91/85 70/75/70
f 70/75/70 85/91/85 86/92/86 71/76/71
f 71/76/71 86/92/86 87/93/87 72/77/72
f 72/77/72 87/93/87 88/94/88 73/78/73
f 73/78/73 88/94/88 89/95/89 74/79/74
f 74/79/74 89/95/89 90/96/90 75/80/75
f 75/80/75 90/96/90 76/81/76 61/65/61
f 76/81/76 91/97/91 92/98/92 77/82/77
f 77/82/77 92/98/92 93/99/93 78/83/78
f 78/83/78 93/99/93 94/100/94 79/84/79
f 79/84/79 94/100/94 95/101/95 80/85/80
f 80/85/80 95/101/95 96/102/96 81/86/81
f 81/86/81 96/102/96 97/103/97 82/87/82
f 82/87/82 97/103/97 98/104/98 83/88/83
f 83/89/83 98/105/98 99/106/99 84/90/84
f 84/90/84 99/106/99 100/107/100 85/91/85
f 85/91/85 100/107/100 101/108/101 86/92/86
f 86/92/86 101/108/101 102/109/102 87/93/87
f 87/93/87 102/109/102 103/110/103 88/94/88
f 88/94/88 103/110/103 104/111/104 89/95/89
f 89/95/89 104/111/104 105/112/105 90/96/90
f 90/96/90 105/112/105 91/97/91 76/81/76
f 91/97/91 106/113/106 107/114/107 92/98/92
f 92/98/92 107/114/107 108/115/108 93/99/93
f 93/99/93 108/115/108 109/116/109 94/100/94
f 94/100/94 109/116/109 110/117/110 95/101/95
f 95/101/95 110/117/110 111/118/111 96/102/96
f 96/102/96 111/118/111 112/119/112 97/103/97
f 97/103/97 112/119/112 113/120/113 98/104/98
f 98/105/98 113/121/113 114/122/114 99/106/99
f 99/106/99 114/122/114 115/123/115 100/107/100
f 100/107/100 115/123/115 116/124/116 101/108/101
f 101/108/101 116/124/116 117/125/117 102/109/102
f 102/109/102 117/125/117 118/126/118 103/110/103
f 103/110/103 118/126/118 119/127/119 104/111/104
f 104/111/104 119/127/119 120/128/120 105/112/105
f 105/112/105 120/128/120 106/113/106 91/97/91
f 106/113/106 121/129/121 122/130/122 107/114/107
f 107/114/107 122/130/122 123/131/123 108/115/108
f 108/115/108 123/131/123 124/132/124 109/116/109
f 109/116/109 124/132/124 125/133/125 110/117/110
f 110/117/110 125/133/125 126/134/126 111/118/111
f 111/118/111 126/134/126 127/135/127 112/119/112
f 112/119/112 127/135/127 128/136/128 113/120/113
f 113/121/113 128/137/128 129/138/129 114/122/114
f 114/122/114 129/138/129 130/139/130 115/123/115
f 115/123/115 130/139/130 131/140/131 116/124/116
f 116/124/116 131/140/131 132/141/132 117/125/117
f 117/125/117 132/141/132 133/142/133 118/126/118
f 118/126/118 133/142/133 134/143/134 119/127/119
f 119/127/119 134/143/134 135/144/135 120/128/120
f 120/128/120 135/144/135 121/129/121 106/113/106
f 121/129/121 136/145/136 137/146/137 122/130/122
f 122/130/122 137/146/137 138/147/138 123/131/123
f 123/131/123 138/147/138 139/148/139 124/132/124
f 124/132/124 139/148/139 140/149/140 125/133/125
f 125/133/125 140/149/140 141/150/141 126/134/126
f 126/134/126 141/150/141 142/151/142 127/135/127
f 127/135/127 142/151/142 143/152/143 128/136/128
f 128/137/128 143/153/143 144/154/144 129/138/129
f 129/138/129 144/154/144 145/155/145 130/139/130
f 130/139/130 145/155/145 146/156/146 131/140/131
f 131/140/131 146/156/146 147/157/147 132/141/132
f 132/141/132 147/157/147 148/158/148 133/142/133
f 133/142/133 148/158/148 149/159/149 134/143/134
f 134/143/134 149/159/149 150/160/150 135/144/135
f 135/144/135 150/160/150 136/145/136 121/129/121
f 136/145/136 151/161/151 152/162/152 137/146/137
f 137/146/137 152/162/152 153/163/153 138/147/138
f 138/147/138 153/163/153 154/164/154 139/148/139
f 139/148/139 154/164/154 155/165/155 140/149/140
f 140/149/140 155/165/155 156/166/156 141/150/141
f 141/150/141 156/166/156 157/167/157 142/151/142
f 142/151/142 157/167/157 158/168/158 143/152/143
f 143/153/143 158/169/158 159/170/159 144/154/144
f 144/154/144 159/170/159 160/171/160 145/155/145
f 145/155/145 160/171/160 161/172/161 146/156/146
f 146/156/146 161/172/161 162/173/162 147/157/147
f 147/157/147 162/173/162 163/174/163 148/158/148
f 148/158/148 163/174/163 164/175/164 149/159/149
f 149/159/149 164/175/164 165/176/165 150/160/150
f 150/160/150 165/176/165 151/161/151 136/145/136
f 151/161/151 166/177/166 167/178/167 152/162/152
f 152/162/152 167/178/167 168/179/168 153/163/153
f 153/163/153 168/179/168 169/180/169 154/164/154
f 154/164/154 169/180/169 170/181/170 155/165/155
f 155/165/155 170/181/170 171/182/171 156/166/156
f 156/166/156 171/182/171 172/183/172 157/167/157
f 157/167/157 172/183/172 173/184/173 158/168/158
f 158/169/158 173/185/173 174/186/174 159/170/159
f 159/170/159 174/186/174 175/187/175 160/171/160
f 160/171/160 175/187/175 176/188/176 161/172/161
f 161/172/161 176/188/176 177/189/177 162/173/162
f 162/173/162 177/189/177 178/190/178 163/174/163
f 163/174/163 178/190/178 179/191/179 164/175/164
f 164/175/164 179/191/179 180/192/180 165/176/165
f 165/176/165 180/192/180 166/177/166 151/161/151
f 166/177/166 181/193/181 182/194/182 167/178/167
f 167/178/167 182/194/182 183/195/183 168/179/168
f 168/179/168 183/195/183 184/196/184 169/180/169
f 169/180/169 184/196/184 185/197/185 170/181/170
f 170/181/170 185/197/185 186/198/186 171/182/171
f 171/182/171 186/198/186 187/199/187 172/183/172
f 172/183/172 187/199/187 188/200/188 173/184/173
f 173/185/173 188/201/188 189/202/189 174/186/174
f 174/186/174 189/202/189 190/203/190 175/187/175
f 175/187/175 190/203/190 191/204/191 176/188/176
f 176/188/176 191/204/191 192/205/192 177/189/177
f 177/189/177 192/205/192 193/206/193 178/190/178
f 178/190/178 193/206/193 194/207/194 179/191/179
f 179/191/179 194/207/194 195/208/195 180/192/180
f 180/192/180 195/208/195 181/193/181 166/177/166
f 181/193/181 196/209/196 197/210/197 182/194/182
f 182/194/182 197/210/197 198/211/198 183/195/183
f 183/195/183 198/211/198 199/212/199 184/196/184
f 184/196/184 199/212/199 200/213/200 185/197/185
f 185/197/185 200/213/200 201/214/201 186/198/186
f 186/198/186 201/214/201 202/215/202 187/199/187
f 187/199/187 202/215/202 203/216/203 188/200/188
f 188/201/188 203/217/203 204/218/204 189/202/189
f 189/202/189 204/218/204 205/219/205 190/203/190
f 190/203/190 205/219/205 206/220/206 191/204/191
f 191/204/191 206/220/206 207/221/207 192/205/192
f 192/205/192 207/221/207 208/222/208 193/206/193
f 193/206/193 208/222/208 209/223/209 194/207/194
f 194/207/194 209/223/209 210/224/210 195/208/195
f 195/208/195 210/224/210 196/209/196 181/193/181
f 196/209/196 211/225/211 212/226/212 197/210/197
f 197/210/197 212/226/212 213/227/213 198/211/198
f 198/211/198 213/227/213 214/228/214 199/212/199
f 199/212/199 214/228/214 215/229/215 200/213/200
f 200/213/200 215/229/215 216/230/216 201/214/201
f 201/214/201 216/230/216 217/231/217 202/215/202
f 202/215/202 217/231/217 218/232/218 203/216/203
f 203/217/203 218/233/218 219/234/219 204/218/204
f 204/218/204 219/234/219 220/235/220 205/219/205
f 205/219/205 220/235/220 221/236/221 206/220/206
f 206/220/206 221/236/221 222/237/222 207/221/207
f 207/221/207 222/237/222 223/238/223 208/222/208
f 208/222/208 223/238/223 224/239/224 209/223/209
f 209/223/209 224/239/224 225/240/225 210/224/210
f 210/224/210 225/240/225 211/225/211 196/209/196
f 211/225/211 226/241/226 227/242/227 212/226/212
f 212/226/212 227/242/227 228/243/228 213/227/213
f 213/227/213 228/243/228 229/244/229 214/228/214
f 214/228/214 229/244/229 230/245/230 215/229/215
f 215/229/215 230/245/230 231/246/231 216/230/216
f 216/230/216 231/246/231 232/247/232 217/231/217
f 217/231/217 232/247/232 233/248/233 218/232/218
f 218/233/218 233/249/233 234/250/234 219/234/219
f 219/234/219 234/250/234 235/251/235 220/235/220
f 220/235/220 235/251/235 236/252/236 221/236/221
f 221/236/221 236/252/236 237/253/237 222/237/222
f 222/237/222 237/253/237 238/254/238 223/238/223
f 223/238/223 238/254/238 239/255/239 224/239/224
f 224/239/224 239/255/239 240/256/240 225/240/225
f 225/240/225 240/256/240 226/241/226 211/225/211
f 226/257/226 241/258/241 242/259/242 227/260/227
f 227/260/227 242/259/242 243/261/243 228/262/228
f 228/262/228 243/261/243 244/263/244 229/264/229
f 229/264/229 244/263/244 245/265/245 230/266/230
f 230/266/230 245/265/245 246/267/246 231/268/231
f 231/268/231 246/267/246 247/269/247 232/270/232
f 232/270/232 247/269/247 248/271/248 233/272/233
f 233/273/233 248/274/248 249/275/249 234/276/234
f 234/276/234 249/275/249 250/277/250 235/278/235
f 235/278/235 250/277/250 251/279/251 236/280/236
f 236/280/236 251/279/251 252/281/252 237/282/237
f 237/282/237 252/281/252 253/283/253 238/284/238
f 238/284/238 253/283/253 254/285/254 239/286/239
f 239/286/239 254/285/254 255/287/255 240/288/240
f 240/288/240 255/287/255 241/258/241 226/257/226
f 241/258/241 256/289/256 257/290/257 242/259/242
f 242/259/242 257/290/257 258/291/258 243/261/243
f 243/261/243 258/291/258 259/292/259 244/263/244
f 244/263/244 259/292/259 260/293/260 245/265/245
f 245/265/245 260/293/260 261/294/261 246/267/246
f 246/267/246 261/294/261 262/295/262 247/269/247
f 247/269/247 262/295/262 263/296/263 248/271/248
f 248/274/248 263/297/263 264/298/264 249/275/249
f 249/275/249 264/298/264 265/299/265 250/277/250
f 250/277/250 265/299/265 266/300/266 251/279/251
f 251/279/251 266/300/266 267/301/267 252/281/252
f 252/281/252 267/301/267 268/302/268 253/283/253
f 253/283/253 268/302/268 269/303/269 254/285/254
f 254/285/254 269/303/269 270/304/270 255/287/255
f 255/287/255 270/304/270 256/289/256 241/258/241
f 256/289/256 271/305/271 272/306/272 257/290/257
f 257/290/257 272/306/272 273/307/273 258/291/258
f 258/291/258 273/307/273 274/308/274 259/292/259
f 259/292/259 274/308/274 275/309/275 260/293/260
f 260/293/260 275/309/275 276/310/276 261/294/261
f 261/294/261 276/310/276 277/311/277 262/295/262
f 262/295/262 277/311/277 278/312/278 263/296/263
f 263/297/263 278/313/278 279/314/279 264/298/264
f 264/298/264 279/314/279 280/315/280 265/299/265
f 265/299/265 280/315/280 281/316/281 266/300/266
f 266/300/266 281/316/281 282/317/282 267/301/267
f 267/301/267 282/317/282 283/318/283 268/302/268
f 268/302/268 283/318/283 284/319/284 269/303/269
f 269/303/269 284/319/284 285/320/285 270/304/270
f 270/304/270 285/320/285 271/305/271 256/289/256
f 271/305/271 286/321/286 287/322/287 272/306/272
f 272/306/272 287/322/287 288/323/288 273/307/273
f 273/307/273 288/323/288 289/324/289 274/308/274
f 274/308/274 289/324/289 290/325/290 275/309/275
f 275/309/275 290/325/290 291/326/291 276/310/276
f 276/310/276 291/326/291 292/327/292 277/311/277
f 277/311/277 292/327/292 293/328/293 278/312/278
f 278/313/278 293/329/293 294/330/294 279/314/279
f 279/314/279 294/330/294 295/331/295 280/315/280
f 280/315/280 295/331/295 296/332/296 281/316/281
f 281/316/281 296/332/296 297/333/297 282/317/282
f 282/317/282 297/333/297 298/334/298 283/318/283
f 283/318/283 298/334/298 299/335/299 284/319/284
f 284/319/284 299/335/299 300/336/300 285/320/285
f 285/320/285 300/336/300 286/321/286 271/305/271
f 286/321/286 301/337/301 302/338/302 287/322/287
f 287/322/287 302/338/302 303/339/303 288/323/288
f 288/323/288 303/339/303 304/340/304 289/324/289
f 289/324/289 304/340/304 305/341/305 290/325/290
f 290/325/290 305/341/305 306/342/306 291/326/291
f 291/326/291 306/342/306 307/343/307 292/327/292
f 292/327/292 307/343/307 308/344/308 293/328/293
f 293/329/293 308/345/308 309/346/309 294/330/294
f 294/330/294 309/346/309 310/347/310 295/331/295
f 295/331/295 310/347/310 311/348/311 296/332/296
f 296/332/296 311/348/311 312/349/312 297/333/297
f 297/333/297 312/349/312 313/350/313 298/334/298
f 298/334/298 313/350/313 314/351/314 299/335/299
f 299/335/299 314/351/314 315/352/315 300/336/300
f 300/336/300 315/352/315 301/337/301 286/321/286
f 301/337/301 316/353/316 317/354/317 302/338/302
f 302/338/302 317/354/317 318/355/318 303/339/303
f 303/339/303 318/355/318 319/356/319 304/340/304
f 304/340/304 319/356/319 320/357/320 305/341/305
f 305/341/305 320/357/320 321/358/321 306/342/306
f 306/342/306 321/358/321 322/359/322 307/343/307
f 307/343/307 322/359/322 323/360/323 308/344/308
f 308/345/308 323/361/323 324/362/324 309/346/309
f 309/346/309 324/362/324 325/363/325 310/347/310
f 310/347/310 325/363/325 326/364/326 311/348/311
f 311/348/311 326/364/326 327/365/327 312/349/312
f 312/349/312 327/365/327 328/366/328 313/350/313
f 313/350/313 328/366/328 329/367/329 314/351/314
f 314/351/314 329/367/329 330/368/330 315/352/315
f 315/352/315 330/368/330 316/353/316 301/337/301
f 316/353/316 331/369/331 332/370/332 317/354/317
f 317/354/317 332/370/332 333/371/333 318/355/318
f 318/355/318 333/371/333 334/372/334 319/356/319
f 319/356/319 334/372/334 335/373/335 320/357/320
f 320/357/320 335/373/335 336/374/336 321/358/321
f 321/358/321 336/374/336 337/375/337 322/359/322
f 322/359/322 337/375/337 338/376/338 323/360/323
f 323/361/323 338/377/338 339/378/339 324/362/324
f 324/362/324 339/378/339 340/379/340 325/363/325
f 325/363/325 340/379/340 341/380/341 326/364/326
f 326/364/326 341/380/341 342/381/342 327/365/327
f 327/365/327 342/381/342 343/382/343 328/366/328
f 328/366/328 343/382/343 344/383/344 329/367/329
f 329/367/329 344/383/344 345/384/345 330/368/330
f 330/368/330 345/384/345 331/369/331 316/353/316
f 331/369/331 346/385/346 347/386/347 332/370/332
f 332/370/332 347/386/347 348/387/348 333/371/333
f 333/371/333 348/387/348 349/388/349 334/372/334
f 334/372/334 349/388/349 350/389/350 335/373/335
f 335/373/335 350/389/350 351/390/351 336/374/336
f 336/374/336 351/390/351 352/391/352 337/375/337
f 337/375/337 352/391/352 353/392/353 338/376/338
f 338/377/338 353/393/353 354/394/354 339/378/339
f 339/378/339 354/394/354 355/395/355 340/379/340
f 340/379/340 355/395/355 356/396/356 341/380/341
f 341/380/341 356/396/356 357/397/357 342/381/342
f 342/381/342 357/397/357 358/398/358 343/382/343
f 343/382/343 358/398/358 359/399/359 344/383/344
f 344/383/344 359/399/359 360/400/360 345/384/345
f 345/384/345 360/400/360 346/385/346 331/369/331
f 346/385/346 361/401/361 362/402/362 347/386/347
f 347/386/347 362/402/362 363/403/363 348/387/348
f 348/387/348 363/403/363 364/404/364 349/388/349
f 349/388/349 364/404/364 365/405/365 350/389/350
f 350/389/350 365/405/365 366/406/366 351/390/351
f 351/390/351 366/406/366 367/407/367 352/391/352
f 352/391/352 367/407/367 368/408/368 353/392/353
f 353/393/353 368/409/368 369/410/369 354/394/354
f 354/394/354 369/410/369 370/411/370 355/395/355
f 355/395/355 370/411/370 371/412/371 356/396/356
f 356/396/356 371/412/371 372/413/372 357/397/357
f 357/397/357 372/413/372 373/414/373 358/398/358
f 358/398/358 373/414/373 374/415/374 359/399/359
f 359/399/359 374/415/374 375/416/375 360/400/360
f 360/400/360 375/416/375 361/401/361 346/385/346
f 361/401/361 376/417/376 377/418/377 362/402/362
f 362/402/362 377/418/377 378/419/378 363/403/363
f 363/403/363 378/419/378 379/420/379 364/404/364
f 364/404/364 379/420/379 380/421/380 365/405/365
f 365/405/365 380/421/380 381/422/381 366/406/366
f 366/406/366 381/422/381 382/423/382 367/407/367
f 367/407/367 382/423/382 383/424/383 368/408/368
f 368/409/368 383/425/383 384/426/384 369/410/369
f 369/410/369 384/426/384 385/427/385 370/411/370
f 370/411/370 385/427/385 386/428/386 371/412/371
f 371/412/371 386/428/386 387/429/387 372/413/372
f 372/413/372 387/429/387 388/430/388 373/414/373
f 373/414/373 388/430/388 389/431/389 374/415/374
f 374/415/374 389/431/389 390/432/390 375/416/375
f 375/416/375 390/432/390 376/417/376 361/401/361
f 376/417/376 391/433/391 392/434/392 377/418/377
f 377/418/377 392/434/392 393/435/393 378/419/378
f 378/419/378 393/435/393 394/436/394 379/420/379
f 379/420/379 394/436/394 395/437/395 380/421/380
f 380/421/380 395/437/395 396/438/396 381/422/381
f 381/422/381 396/438/396 397/439/397 382/423/382
f 382/423/382 397/439/397 398/440/398 383/424/383
f 383/425/383 398/441/398 399/442/399 384/426/384
f 384/426/384 399/442/399 400/443/400 385/427/385
f 385/427/385 400/443/400 401/444/401 386/428/386
f 386/428/386 401/444/401 402/445/402 387/429/387
f 387/429/387 402/445/402 403/446/403 388/430/388
f 388/430/388 403/446/403 404/447/404 389/431/389
f 389/431/389 404/447/404 405/448/405 390/432/390
f 390/432/390 405/448/405 391/433/391 376/417/376
f 391/433/391 406/449/406 407/450/407 392/434/392
f 392/434/392 407/450/407 408/451/408 393/435/393
f 393/435/393 408/451/408 409/452/409 394/436/394
f 394/436/394 409/452/409 410/453/410 395/437/395
f 395/437/395 410/453/410 411/454/411 396/438/396
f 396/438/396 411/454/411 412/455/412 397/439/397
f 397/439/397 412/455/412 413/456/413 398/440/398
f 398/441/398 413/457/413 414/458/414 399/442/399
f 399/442/399 414/458/414 415/459/415 400/443/400
f 400/443/400 415/459/415 416/460/416 401/444/401
f 401/444/401 416/460/416 417/461/417 402/445/402
f 402/445/402 417/461/417 418/462/418 403/446/403
f 403/446/403 418/462/418 419/463/419 404/447/404
f 404/447/404 419/463/419 420/464/420 405/448/405
f 405/448/405 420/464/420 406/449/406 391/433/391
f 406/449/406 421/465/421 422/466/422 407/450/407
f 407/450/407 422/466/422 423/467/423 408/451/408
f 408/451/408 423/467/423 424/468/424 409/452/409
f 409/452/409 424/468/424 425/469/425 410/453/410
f 410/453/410 425/469/425 426/470/426 411/454/411
f 411/454/411 426/470/426 427/471/427 412/455/412
f 412/455/412 427/471/427 428/472/428 413/456/413
f 413/457/413 428/473/428 429/474/429 414/458/414
f 414/458/414 429/474/429 430/475/430 415/459/415
f 415/459/415 430/475/430 431/476/431 416/460/416
f 416/460/416 431/476/431 432/477/432 417/461/417
f 417/461/417 432/477/432 433/478/433 418/462/418
f 418/462/418 433/478/433 434/479/434 419/463/419
f 419/463/419 434/479/434 435/480/435 420/464/420
f 420/464/420 435/480/435 421/465/421 406/449/406
f 421/465/421 436/481/436 437/482/437 422/466/422
f 422/466/422 437/482/437 438/483/438 423/467/423
f 423/467/423 438/483/438 439/484/439 424/468/424
f 424/468/424 439/484/439 440/485/440 425/469/425
f 425/469/425 440/485/440 441/486/441 426/470/426
f 426/470/426 441/486/441 442/487/442 427/471/427
f 427/471/427 442/487/442 443/488/443 428/472/428
f 428/473/428 443/489/443 444/490/444 429/474/429
f 429/474/429 444/490/444 445/491/445 430/475/430
f 430/475/430 445/491/445 446/492/446 431/476/431
f 431/476/431 446/492/446 447/493/447 432/477/432
f 432/477/432 447/493/447 448/494/448 433/478/433
f 433/478/433 448/494/448 449/495/449 434/479/434
f 434/479/434 449/495/449 450/496/450 435/480/435
f 435/480/435 450/496/450 436/481/436 421/465/421
f 436/481/436 1/1/1 2/4/2 437/482/437
f 437/482/437 2/4/2 3/6/3 438/483/438
f 438/483/438 3/6/3 4/8/4 439/484/439
f 439/484/439 4/8/4 5/10/5 440/485/440
f 440/485/440 5/10/5 6/12/6 441/486/441
f 441/486/441 6/12/6 7/14/7 442/487/442
f 442/487/442 7/14/7 8/16/8 443/488/443
f 443/489/443 8/17/8 9/20/9 444/490/444
f 444/490/444 9/20/9 10/22/10 445/491/445
f 445/491/445 10/22/10 11/24/11 446/492/446
f 446/492/446 11/24/11 12/26/12 447/493/447
f 447/493/447 12/26/12 13/28/13 448/494/448
f 448/494/448 13/28/13 14/30/14 449/495/449
f 449/495/449 14/30/14 15/32/15 450/496/450
f 450/496/450 15/32/15 1/1/1 436/481/436
